<?xml version="1.0" standalone="no"?>
<!DOCTYPE svg PUBLIC "-//W3C//DTD SVG 20010904//EN"
 "http://www.w3.org/TR/2001/REC-SVG-20010904/DTD/svg10.dtd">
<svg version="1.0" xmlns="http://www.w3.org/2000/svg"
 width="1084.000000pt" height="1174.000000pt" viewBox="0 0 1084.000000 1174.000000"
 preserveAspectRatio="xMidYMid meet">

<g transform="translate(0.000000,1174.000000) scale(0.100000,-0.100000)"
fill="#000000" stroke="none">
<path d="M0 11645 l0 -95 30 0 c17 0 30 -4 30 -10 0 -5 -9 -10 -20 -10 -11 0
-20 -6 -20 -14 0 -8 -6 -16 -13 -19 -9 -3 -9 -7 1 -20 8 -9 11 -25 7 -37 -5
-17 -2 -20 21 -20 22 0 25 3 16 12 -7 7 -12 20 -12 30 0 10 -4 18 -10 18 -5 0
-10 5 -10 10 0 22 31 8 42 -17 11 -30 15 -56 23 -171 2 -40 9 -81 15 -93 8
-13 8 -30 2 -47 -11 -33 -3 -142 10 -142 6 0 5 -7 -2 -15 -8 -9 -9 -25 -4 -42
4 -16 7 -31 6 -35 -1 -5 4 -8 12 -8 8 0 19 14 25 30 8 24 15 30 38 29 17 -1
21 -3 11 -6 -24 -6 -23 -23 2 -23 15 0 20 -6 19 -27 -2 -24 -2 -25 -6 -5 -2
12 -11 22 -18 22 -10 0 -12 -10 -8 -37 3 -21 10 -43 15 -49 13 -17 -14 -34
-58 -37 -37 -2 -39 0 -42 28 -5 54 -9 57 -37 39 -18 -12 -26 -25 -25 -43 4
-62 1 -74 -20 -68 -20 5 -20 0 -20 -208 0 -238 -4 -226 73 -223 20 1 40 -2 44
-5 3 -4 12 -2 18 3 8 7 23 6 46 -4 22 -9 78 -14 163 -15 70 -1 137 -6 147 -11
10 -6 54 -13 96 -16 43 -3 96 -7 118 -10 22 -2 99 -7 170 -10 72 -3 145 -9
162 -14 19 -5 35 -5 39 1 5 8 29 7 114 -6 19 -4 75 -8 123 -10 49 -3 91 -7 95
-9 13 -8 136 -9 170 -1 17 4 32 4 32 -1 0 -5 31 -10 68 -12 142 -5 469 -22
502 -26 19 -2 78 -5 130 -6 52 -1 100 -6 107 -12 11 -9 69 -13 343 -23 58 -3
146 -9 195 -15 50 -6 170 -14 267 -18 97 -4 180 -10 184 -14 4 -4 12 -4 18 2
14 11 26 3 48 -32 24 -36 13 -88 -18 -88 -8 0 -14 -5 -14 -10 0 -13 -77 -90
-84 -83 -2 3 -9 -4 -15 -15 -6 -11 -19 -28 -28 -38 -10 -10 -18 -20 -19 -23
-2 -18 -42 -89 -60 -106 -12 -11 -24 -28 -27 -37 -4 -10 -13 -18 -20 -18 -19
0 -50 -36 -43 -49 8 -12 -33 -53 -46 -45 -4 3 -8 -5 -9 -18 -1 -23 -1 -23 -9
2 -7 21 -8 17 -9 -21 -1 -42 -22 -79 -45 -79 -8 0 -41 -31 -41 -39 -2 -24 -17
-61 -25 -61 -6 0 -10 -8 -10 -18 0 -23 -19 -42 -41 -42 -17 0 -29 -37 -29 -86
0 -13 -5 -24 -11 -24 -5 0 -8 -4 -5 -8 6 -11 -3 -23 -39 -51 -16 -12 -31 -27
-31 -32 -1 -5 -2 -18 -3 -28 0 -11 -7 -26 -13 -33 -7 -7 -23 -34 -35 -60 -12
-25 -31 -49 -42 -53 -11 -3 -22 -18 -26 -34 -3 -16 -16 -33 -30 -39 -14 -7
-25 -17 -25 -24 -1 -17 -35 -58 -49 -58 -6 0 -11 -5 -11 -11 0 -6 -7 -17 -15
-26 -8 -8 -13 -19 -10 -24 4 -5 0 -9 -8 -9 -13 0 -50 -70 -51 -99 -1 -8 -8
-17 -16 -19 -18 -6 -40 -34 -34 -43 2 -4 -15 -9 -37 -13 -31 -5 -40 -11 -37
-24 3 -22 -101 -172 -120 -172 -10 0 -12 -8 -7 -29 4 -21 2 -30 -10 -35 -11
-4 -15 -16 -13 -39 2 -38 -7 -57 -28 -57 -28 0 -54 -38 -54 -80 0 -34 -3 -40
-21 -40 -20 0 -20 -4 -17 -85 4 -76 3 -85 -13 -85 -10 0 -21 5 -24 10 -10 17
-25 11 -25 -9 0 -11 -6 -22 -12 -24 -10 -4 -9 -8 2 -16 10 -7 11 -11 3 -11 -7
0 -10 -6 -7 -14 4 -11 0 -13 -15 -9 -18 4 -21 1 -21 -24 0 -22 6 -32 28 -40
l27 -11 -31 5 c-17 3 -41 0 -53 -6 -11 -7 -21 -8 -21 -3 0 4 -19 8 -42 7 -37
-1 -103 11 -117 22 -2 1 6 11 17 22 20 17 31 51 16 51 -9 0 -34 -28 -34 -39 0
-6 -36 -11 -87 -13 -50 -2 -88 -7 -88 -13 0 -5 18 -9 40 -7 30 2 36 0 25 -7
-12 -9 -10 -11 10 -12 l25 -1 -25 -8 c-14 -4 -18 -9 -10 -9 13 -1 13 -2 0 -11
-11 -7 -18 -5 -26 6 -9 12 -13 12 -17 2 -4 -8 -8 -5 -12 10 -6 18 -14 22 -51
22 -44 0 -57 12 -30 27 16 10 27 61 15 69 -16 9 -9 24 10 24 11 0 23 5 27 11
4 7 -10 9 -45 7 -48 -4 -65 3 -66 25 0 4 -3 7 -7 7 -5 0 -15 0 -24 0 -13 0
-14 -3 -5 -14 11 -13 -2 -14 -89 -13 l-101 2 6 -24 c8 -32 -8 -41 -72 -41 -43
0 -55 4 -68 22 -15 22 -14 23 17 31 42 11 64 31 26 25 -15 -3 -32 -2 -38 2
-14 9 87 20 175 21 73 0 115 8 115 20 0 5 -31 9 -69 9 -59 0 -71 3 -83 21 -12
19 -17 20 -38 9 -15 -8 -46 -11 -87 -7 -43 3 -63 1 -63 -7 0 -6 -4 -4 -10 4
-5 9 -22 13 -45 12 -20 -2 -34 1 -32 5 3 4 -23 7 -56 6 -44 -2 -56 0 -42 6 19
9 18 10 -5 11 l-25 2 25 9 c17 6 2 7 -45 3 -38 -3 -72 -8 -75 -13 -10 -15 -42
-21 -61 -10 -23 12 -16 29 11 29 14 0 18 5 13 16 -5 13 -2 15 17 9 l23 -7 -19
26 c-12 16 -29 25 -47 26 -20 0 -30 7 -38 26 -5 15 -7 29 -4 32 3 3 5 0 5 -6
0 -7 8 -12 18 -12 10 0 23 -5 29 -11 8 -8 13 -8 17 0 4 6 2 11 -4 11 -7 0 -23
9 -36 19 -27 21 -61 18 -67 -8 -3 -9 -5 -3 -6 12 -1 23 -5 27 -19 23 -15 -5
-21 2 -29 31 l-10 38 -3 -55 c-1 -42 -4 -49 -9 -30 -4 14 -13 24 -19 23 -15
-4 -16 23 -2 32 16 10 11 22 -11 28 -19 5 -21 2 -15 -24 5 -25 2 -30 -19 -35
-14 -3 -25 -10 -25 -14 0 -5 -3 -15 -6 -23 -3 -9 3 -17 18 -21 22 -7 22 -8 -7
-17 -16 -5 -50 -7 -75 -4 -29 3 -55 0 -73 -10 -24 -12 -29 -12 -33 0 -3 7 -12
11 -20 8 -8 -3 -22 1 -32 8 -14 11 -15 11 -5 -1 15 -16 17 -34 4 -26 -4 3 -18
-3 -30 -13 -16 -14 -18 -21 -9 -24 19 -8 -54 -8 -91 -1 -47 10 -27 24 35 24
30 0 54 5 54 10 0 11 -46 13 -114 4 l-46 -7 0 -817 0 -817 30 0 c20 0 32 6 36
19 4 13 16 18 47 20 61 2 100 -3 113 -13 6 -5 14 -6 17 -3 3 4 40 6 82 6 41
-1 75 3 75 8 0 7 21 7 40 0 3 -2 37 -3 76 -4 60 -1 71 1 66 14 -3 8 -10 18
-16 22 -7 5 -4 8 7 8 9 0 17 5 17 10 0 7 7 7 20 0 11 -6 25 -8 30 -5 6 3 10
-3 10 -15 0 -11 -7 -23 -15 -26 -26 -10 -16 -21 20 -22 19 -1 44 -6 55 -12 16
-9 22 -6 36 15 11 17 20 23 27 16 6 -6 24 -4 49 5 53 18 72 18 64 -1 -3 -8 -1
-15 4 -15 6 0 10 5 10 10 0 6 9 10 19 10 11 0 23 5 27 11 4 7 22 9 47 6 22 -3
51 -1 66 5 14 6 64 13 111 15 135 5 236 13 300 22 33 4 61 5 62 2 2 -4 19 -1
38 6 26 9 29 12 13 12 -44 2 -34 21 11 21 25 0 47 4 50 8 3 4 21 6 40 4 33 -4
35 -6 29 -30 -6 -24 -5 -25 10 -12 49 45 75 53 102 34 10 -8 34 -14 53 -14 26
0 33 -3 28 -15 -3 -8 -1 -15 3 -15 5 0 11 7 15 15 3 9 18 15 37 15 27 0 30 -2
19 -15 -11 -13 -8 -15 16 -15 21 0 25 3 15 9 -8 5 -12 18 -8 29 2 12 1 22 -5
24 -10 4 0 38 11 38 4 0 14 -11 21 -25 16 -31 25 -32 27 -3 2 28 22 39 55 32
14 -3 29 0 33 5 10 17 44 13 67 -9 12 -11 28 -20 35 -20 7 0 13 -6 14 -12 0
-7 2 -53 5 -102 2 -48 0 -93 -5 -100 -5 -6 -12 -56 -15 -110 -3 -55 -8 -102
-11 -104 -3 -3 0 -11 6 -19 9 -10 8 -13 0 -13 -7 0 -10 -4 -7 -9 3 -5 -1 -14
-9 -21 -11 -9 -42 -10 -112 -6 -54 4 -260 9 -458 11 -337 4 -439 8 -509 22
-21 4 -27 2 -21 -7 6 -10 4 -11 -6 -4 -18 11 -559 12 -559 0 0 -4 -7 -5 -16
-2 -9 3 -135 9 -280 13 l-264 6 0 -341 0 -342 271 0 c167 0 278 -4 290 -10 13
-7 19 -7 19 -1 0 12 62 2 71 -11 3 -5 20 -10 37 -11 32 -2 46 -17 17 -17 -8 0
-15 -7 -15 -15 0 -8 -7 -15 -15 -15 -8 0 -24 -8 -35 -17 -11 -10 -29 -26 -40
-35 -11 -10 -25 -18 -32 -18 -6 0 -30 -11 -52 -24 -49 -28 -87 -34 -276 -47
-80 -6 -154 -11 -165 -13 -11 -2 -32 -4 -47 -5 l-28 -1 0 -2608 0 -2609 23
-21 23 -22 1123 0 1123 0 -5 33 c-3 17 -11 52 -17 77 -11 45 -20 94 -39 220
-5 36 -15 94 -21 130 -6 36 -16 103 -21 150 -18 157 -29 264 -39 360 -5 52
-16 136 -25 185 -9 50 -20 119 -25 155 -11 75 -56 315 -69 369 -14 55 -29 129
-41 201 -6 36 -15 83 -20 106 -21 96 -23 172 -6 199 9 14 25 25 36 25 15 0 20
7 20 29 0 16 -6 34 -14 40 -7 6 -16 39 -19 74 -4 34 -11 76 -16 92 -5 17 -15
55 -21 85 -6 30 -15 64 -19 75 -5 11 -14 33 -20 48 -6 15 -11 39 -11 52 0 13
-5 27 -10 30 -5 3 -10 28 -10 55 0 28 -6 71 -13 97 -9 37 -9 47 1 50 6 3 12
13 12 24 0 10 4 19 9 19 5 0 18 14 29 32 l21 32 -25 23 c-23 21 -24 26 -16 80
5 32 7 86 4 121 -3 40 0 67 8 77 6 7 10 30 9 49 -2 19 0 38 4 42 18 19 -5 198
-43 324 -5 19 -15 71 -20 115 -5 44 -12 96 -15 115 -29 216 -38 421 -24 505 5
28 12 79 16 115 3 36 11 68 17 72 7 5 6 8 -4 8 -13 0 -13 1 0 10 21 14 30 12
30 -5 0 -8 5 -15 10 -15 6 0 10 5 10 11 0 5 6 7 13 3 7 -5 7 -1 -2 10 -13 16
-12 17 11 11 26 -7 47 8 28 20 -12 7 -14 45 -2 45 11 0 32 99 32 150 -1 47
-19 125 -34 149 -6 10 -5 16 2 19 7 2 12 14 12 27 0 13 5 27 10 30 6 3 10 19
10 36 0 16 4 37 10 47 30 55 97 216 125 302 10 30 22 59 26 65 5 5 9 19 9 31
0 13 4 26 10 29 5 3 10 17 10 29 0 13 9 35 20 49 11 14 20 35 20 47 0 18 -4
21 -25 18 -17 -4 -25 -1 -25 8 0 8 6 14 13 14 6 0 25 22 41 49 35 59 99 127
139 147 34 18 83 10 96 -15 6 -10 6 -33 2 -54 -8 -35 2 -213 15 -270 4 -15 2
-53 -4 -85 -14 -70 -3 -136 27 -163 11 -11 21 -24 21 -28 0 -5 29 -39 65 -76
36 -37 65 -70 65 -73 0 -7 76 -78 155 -146 33 -28 62 -54 65 -57 3 -3 25 -19
50 -37 25 -17 62 -46 82 -64 20 -18 64 -55 98 -83 75 -61 91 -89 89 -158 -1
-29 3 -63 10 -75 6 -12 9 -22 6 -22 -3 0 0 -12 8 -27 8 -16 27 -59 42 -96 16
-38 36 -74 46 -80 11 -7 19 -18 19 -25 0 -8 6 -26 14 -40 8 -15 21 -43 30 -63
9 -20 24 -39 34 -41 10 -3 33 -33 51 -67 18 -34 39 -65 47 -68 8 -3 14 -9 14
-14 0 -5 22 -31 50 -58 27 -27 50 -54 50 -60 0 -6 4 -11 9 -11 5 0 29 -18 53
-40 23 -23 60 -50 81 -61 21 -11 40 -26 43 -33 10 -25 238 -128 325 -145 19
-4 48 -15 65 -23 16 -9 64 -24 106 -34 43 -9 78 -21 78 -25 0 -4 10 -11 23
-14 12 -4 38 -14 57 -23 34 -15 48 -19 153 -41 26 -6 57 -16 69 -22 63 -34
329 -54 355 -28 8 8 43 9 110 5 145 -9 333 -35 333 -46 0 -9 40 -1 55 11 6 4
17 4 25 -1 8 -6 25 -10 38 -10 33 0 28 -28 -5 -29 -145 -5 -225 -16 -280 -42
-24 -10 -56 -19 -72 -19 -17 0 -32 -4 -36 -10 -3 -5 -18 -2 -35 9 -39 23 -85
17 -87 -12 -4 -54 -102 -78 -142 -35 -19 20 -25 21 -83 11 -114 -20 -370 -97
-392 -118 -8 -8 -19 -15 -25 -15 -6 0 -11 -4 -11 -10 0 -5 30 -10 68 -12 60
-3 67 -5 70 -25 2 -16 -4 -24 -32 -33 -47 -15 -92 -5 -138 31 -38 30 -49 30
-128 -3 -14 -6 -34 -14 -45 -18 -11 -4 -49 -21 -84 -39 -35 -17 -70 -31 -77
-31 -8 0 -14 -4 -14 -10 0 -5 -6 -10 -13 -10 -23 0 -77 -31 -87 -50 -6 -11
-27 -20 -57 -25 -57 -8 -99 -28 -116 -55 -6 -11 -20 -20 -29 -20 -10 0 -18 -5
-18 -10 0 -7 19 -9 48 -6 85 8 350 -30 417 -59 80 -35 110 -45 134 -45 25 1
25 1 7 15 -21 16 -15 45 9 45 16 0 49 -17 77 -39 17 -13 17 -15 -3 -32 -20
-17 -20 -17 11 -24 16 -4 30 -11 30 -16 0 -5 18 -9 39 -9 22 0 42 -4 45 -9 6
-9 24 -12 134 -27 l52 -7 0 -58 c0 -33 4 -67 9 -77 20 -39 36 -142 34 -224 -1
-51 2 -88 7 -88 6 0 10 -51 10 -123 0 -113 2 -123 21 -135 18 -12 20 -19 14
-67 -7 -55 6 -154 30 -230 15 -47 19 -202 7 -219 -19 -23 -43 -115 -37 -139 8
-28 -11 -97 -26 -97 -5 0 -9 -6 -9 -13 0 -18 -38 -98 -57 -119 -15 -16 -14
-33 2 -153 9 -65 -6 -105 -39 -105 -16 0 -27 7 -31 21 -5 16 -10 18 -21 8 -8
-6 -14 -17 -14 -23 0 -7 -9 -31 -20 -54 -11 -22 -20 -47 -20 -55 0 -7 -4 -17
-9 -23 -8 -9 -57 -160 -64 -200 -2 -10 -10 -32 -16 -49 -7 -16 -17 -50 -21
-75 -11 -58 -37 -162 -57 -225 -8 -27 -19 -67 -23 -87 -7 -37 -6 -38 21 -38
22 0 29 5 29 20 0 11 7 20 15 20 8 0 20 -9 27 -20 12 -18 24 -20 125 -20 l113
0 0 43 c0 43 13 67 36 67 11 0 23 -18 58 -87 11 -22 16 -23 164 -23 83 0 152
3 152 6 0 3 -5 14 -11 25 -16 31 16 107 49 116 19 5 29 1 36 -13 6 -10 28 -35
49 -57 20 -21 37 -47 37 -57 0 -19 8 -20 154 -20 l154 0 7 29 c7 33 37 63 65
68 21 3 50 -21 50 -41 0 -7 8 -23 19 -34 18 -21 26 -22 210 -22 153 0 191 3
191 13 0 19 33 47 56 47 12 0 24 -12 32 -30 l14 -30 154 0 c85 0 154 4 154 8
0 4 -5 13 -12 20 -14 14 -14 93 1 121 17 30 44 26 60 -9 9 -22 22 -33 43 -37
37 -7 58 -45 40 -74 -7 -10 -12 -21 -12 -24 0 -3 83 -5 185 -5 102 0 185 2
185 5 0 2 -9 19 -20 37 -12 21 -20 51 -20 80 0 40 4 50 25 64 35 23 75 12 75
-20 0 -14 4 -26 8 -28 4 -1 18 -18 31 -36 18 -25 22 -42 18 -68 l-6 -34 80 0
79 0 2 63 c4 102 0 147 -12 162 -16 19 -30 19 -30 1 0 -14 -24 -29 -50 -30
-20 -1 -50 61 -50 104 0 27 7 41 31 61 l31 25 -28 100 c-23 82 -34 104 -62
129 -51 46 -60 69 -59 175 0 126 -19 209 -49 216 -38 10 -76 58 -77 100 -1 21
4 39 11 42 14 4 16 42 2 42 -5 0 -10 6 -10 14 0 30 -46 124 -82 165 -38 44
-47 78 -27 98 6 6 9 26 7 44 -2 26 -11 39 -36 54 -27 17 -32 25 -27 48 4 23 1
27 -20 27 -28 0 -32 -12 -10 -30 8 -7 15 -16 15 -21 0 -16 -50 -9 -68 9 -25
25 -47 34 -112 47 l-55 11 70 27 c68 26 138 35 161 19 6 -4 16 -17 23 -29 14
-27 22 -28 67 -7 42 20 46 55 9 72 -14 7 -32 12 -39 12 -8 0 -20 7 -27 16 -11
14 -10 18 6 30 10 8 35 14 54 14 58 1 64 9 104 150 5 19 13 43 18 52 5 10 9
40 9 67 0 49 0 50 -47 73 -54 26 -67 53 -31 63 45 12 123 50 135 65 48 57 83
132 83 175 0 11 -16 38 -35 59 -19 21 -35 42 -35 47 0 5 19 9 43 9 40 0 45 3
60 35 9 20 25 38 34 41 37 12 108 50 125 67 10 9 23 17 29 17 14 0 114 82 146
119 13 14 23 36 23 49 0 23 14 27 88 23 17 -1 32 3 32 9 0 5 14 10 30 10 17 0
30 5 30 11 0 6 16 9 38 8 21 -2 44 1 52 6 8 5 27 10 43 11 15 2 42 12 61 23
27 17 50 21 123 21 107 0 126 11 85 49 -15 14 -41 33 -57 41 -17 8 -32 17 -35
20 -10 10 -65 41 -82 47 -10 3 -18 9 -18 14 0 12 -101 75 -132 83 -15 3 -33
13 -42 21 -8 8 -19 15 -25 15 -6 0 -19 4 -29 10 -17 9 -96 35 -182 60 -25 8
-49 17 -54 22 -6 4 -22 8 -37 8 -15 0 -31 5 -34 10 -3 6 -21 10 -40 10 -19 0
-37 5 -40 10 -9 15 -102 13 -108 -2 -4 -10 -6 -10 -6 0 -1 6 -13 12 -27 12
l-26 0 29 34 c31 37 44 40 55 14 10 -25 48 -24 48 1 0 12 11 23 31 30 18 6 29
16 27 23 -7 17 6 53 19 53 19 0 59 60 55 83 -2 12 -7 22 -11 22 -13 0 -4 118
11 135 7 10 30 33 51 53 20 19 37 44 37 54 0 13 8 18 30 18 30 0 32 3 34 52 1
15 13 38 29 52 15 14 27 29 27 34 0 4 6 20 13 35 9 20 19 27 40 27 27 0 38 22
17 35 -6 4 -6 15 0 31 8 19 6 28 -9 43 -18 18 -18 19 0 32 18 13 23 59 6 59
-5 0 -5 6 1 13 6 7 9 23 5 35 -3 15 -1 22 8 22 9 0 15 13 16 32 2 18 7 34 13
36 5 2 10 11 10 20 0 15 -2 15 -10 2 -7 -11 -10 -8 -10 16 0 31 30 70 44 57 4
-4 9 3 13 15 3 12 13 22 23 22 13 0 19 10 22 35 2 19 -1 36 -7 38 -5 2 4 22
21 44 25 30 31 46 26 69 -6 34 -21 47 -38 33 -13 -11 -52 64 -61 118 -4 24 -9
31 -17 24 -7 -6 -22 -8 -34 -4 -15 4 -22 1 -22 -9 0 -18 -60 -19 -81 -2 -8 6
-27 14 -43 18 -24 6 -27 9 -15 17 10 7 6 8 -13 3 -22 -5 -28 -3 -28 10 0 9 -4
17 -10 17 -5 1 -14 2 -19 3 -5 0 -13 4 -17 8 -4 5 -20 8 -36 8 -21 0 -28 -5
-28 -20 0 -11 -5 -20 -11 -20 -5 0 -7 -4 -4 -10 3 -5 1 -10 -5 -10 -6 0 -15
-10 -19 -22 l-9 -23 -10 27 c-8 19 -16 25 -30 21 -15 -3 -19 0 -18 17 0 11 7
25 15 29 9 6 10 11 2 15 -6 4 -11 27 -11 50 0 34 -4 43 -16 42 -10 0 -18 8
-20 19 -3 22 -39 55 -60 55 -8 0 -14 7 -14 15 0 8 5 15 10 15 6 0 15 12 20 26
6 14 14 23 19 19 20 -12 22 17 2 31 -12 8 -21 23 -21 32 0 15 -2 15 -10 2 -9
-13 -11 -13 -19 0 -6 9 -6 19 0 26 10 13 9 104 -2 104 -8 0 -15 126 -9 175 3
27 -7 52 -28 68 -16 14 -20 23 -13 35 6 11 2 26 -17 51 -33 45 -83 91 -99 91
-7 0 -13 7 -13 16 0 8 -4 12 -10 9 -5 -3 -10 1 -10 9 0 18 -54 61 -78 61 -9 0
-22 -4 -29 -8 -18 -13 -33 1 -33 29 0 35 -17 64 -38 64 -9 0 -30 9 -46 19 -16
11 -34 17 -41 15 -7 -3 -21 5 -31 18 -11 13 -40 34 -66 47 -27 12 -48 26 -48
31 0 4 -10 7 -22 6 -29 -2 -38 10 -38 52 0 29 -3 33 -22 30 -16 -2 -24 3 -26
17 -2 11 -10 24 -18 28 -21 12 -46 65 -34 72 14 9 12 42 -2 49 -18 7 20 36 47
36 20 0 75 52 75 71 0 5 -7 9 -15 9 -8 0 -15 -5 -15 -11 0 -5 -4 -7 -10 -4
-15 9 -12 25 4 25 16 0 10 40 -7 52 -16 10 63 27 106 22 27 -2 37 1 37 11 0 8
-7 15 -15 15 -8 0 -15 5 -15 10 0 6 5 10 11 10 5 0 7 5 4 10 -3 6 -13 10 -21
10 -8 0 -12 -5 -9 -10 3 -6 0 -16 -8 -24 -18 -19 -47 -2 -47 27 0 13 -5 28
-11 34 -12 12 -15 65 -5 82 4 6 16 11 27 11 22 0 23 4 9 31 -8 13 -7 25 2 42
7 12 11 28 10 35 -2 7 6 4 17 -7 32 -32 38 -26 36 32 -1 40 -6 53 -18 55 -10
2 -17 10 -17 18 0 8 -4 13 -9 9 -5 -3 -17 3 -27 12 -17 17 -17 18 2 21 11 2
25 12 32 22 11 18 9 20 -19 20 -17 0 -28 -4 -24 -10 3 -5 2 -10 -4 -10 -5 0
-18 -3 -28 -6 -16 -5 -16 -4 -3 8 8 7 14 23 12 35 -2 14 3 23 17 28 12 3 21
12 21 19 0 7 10 17 23 22 12 6 16 9 9 7 -7 -1 -10 1 -7 7 7 12 -5 60 -15 60
-5 0 -12 -9 -15 -20 -4 -11 -10 -18 -15 -15 -5 3 -11 1 -15 -5 -10 -16 -44
-12 -53 8 -20 37 -23 72 -7 72 8 0 15 5 15 10 0 6 -13 10 -29 10 -54 0 -59 6
-49 56 8 38 7 49 -12 80 -19 30 -27 35 -49 30 -14 -3 -21 -3 -15 0 7 3 0 16
-17 34 -32 32 -40 89 -15 109 8 7 13 23 10 36 -2 13 0 27 6 30 5 3 10 1 10 -4
0 -28 22 -54 31 -39 8 13 -1 48 -12 48 -12 0 -11 77 1 85 6 3 10 -4 10 -15 0
-16 5 -20 15 -16 10 3 20 -5 30 -24 10 -19 20 -27 30 -24 17 7 20 31 5 36 -15
5 -17 95 -2 110 10 10 14 10 21 -1 11 -17 51 -5 51 15 0 8 3 13 8 13 18 -3 21
3 12 25 -6 17 -4 34 8 60 22 47 32 45 33 -6 0 -33 2 -38 9 -23 6 14 9 1 10
-45 1 -36 4 -58 7 -49 3 11 12 15 29 11 23 -4 25 -9 23 -46 -2 -27 1 -40 9
-38 7 1 12 -1 12 -6 0 -4 18 -6 40 -4 36 4 40 2 45 -24 4 -16 9 -36 11 -46 3
-9 0 -19 -6 -23 -15 -9 -12 -23 8 -43 9 -10 32 -35 50 -55 17 -21 32 -32 32
-25 1 7 7 2 15 -12 7 -14 17 -24 22 -22 4 1 10 -7 11 -19 2 -12 12 -24 23 -26
10 -3 19 -13 19 -22 0 -14 2 -14 10 -1 8 12 10 11 10 -7 0 -13 -5 -23 -11 -23
-18 0 -5 -44 16 -55 12 -6 19 -18 17 -27 -2 -10 1 -18 7 -18 6 0 11 7 11 15 0
17 26 20 35 4 4 -6 13 -8 21 -5 8 3 14 1 14 -4 0 -6 17 -10 38 -11 58 -1 77
-12 77 -45 0 -25 4 -29 28 -30 25 -1 28 2 22 24 -5 20 -3 23 10 18 9 -3 22 -6
28 -6 7 0 18 -13 25 -29 7 -16 19 -28 27 -27 7 0 13 -1 12 -4 -1 -3 6 -18 15
-32 10 -15 15 -34 11 -44 -4 -12 -3 -15 5 -10 7 4 12 2 12 -5 0 -7 2 -10 5 -7
3 2 25 -15 50 -39 25 -24 52 -43 59 -43 8 0 16 -7 20 -15 3 -8 17 -15 31 -15
14 0 31 -4 38 -10 91 -75 100 -80 113 -69 10 8 14 8 14 0 0 -6 5 -11 11 -11 5
0 7 5 4 10 -3 6 10 1 29 -11 20 -12 36 -24 36 -29 0 -6 54 -7 81 -1 15 3 4 31
-13 31 -18 0 -23 21 -19 77 1 12 -5 25 -14 31 -13 7 -5 12 38 24 56 16 82 16
132 -1 40 -13 186 -27 235 -23 21 2 41 10 44 18 5 13 -36 64 -52 64 -14 0 -45
69 -39 85 6 13 3 14 -14 5 -18 -10 -19 -9 -8 9 10 15 10 23 1 34 -9 10 -9 20
1 40 13 30 27 35 27 11 0 -9 7 -14 17 -12 22 4 29 28 9 28 -13 0 -15 9 -12 53
2 29 9 52 15 51 28 -3 32 -6 41 -29 6 -16 6 -33 -1 -48 -23 -50 33 -107 60
-60 5 10 13 15 17 11 11 -12 33 38 29 69 -2 17 4 32 14 40 15 11 14 12 -3 13
-14 0 -17 5 -12 23 3 12 6 25 6 29 0 3 14 9 30 13 17 4 30 13 30 21 0 8 4 14
9 14 11 0 31 76 26 100 -2 11 4 20 17 23 11 3 19 13 18 24 -4 33 0 40 25 51
15 7 25 20 25 32 0 11 5 20 11 20 7 0 10 15 7 40 -2 22 0 40 4 40 4 0 5 6 2
14 -3 7 2 20 10 29 9 9 16 31 17 49 0 27 2 30 9 13 5 -12 6 10 3 57 -5 73 -4
76 19 83 12 4 26 12 30 18 11 18 -4 81 -25 104 -16 18 -18 27 -9 52 9 26 8 31
-9 36 -11 4 -25 18 -31 31 -6 13 -15 24 -20 24 -4 0 -8 7 -8 16 0 10 -6 14
-15 10 -9 -3 -15 0 -15 9 0 8 -4 15 -10 15 -5 0 -10 -4 -10 -10 0 -13 -35 22
-43 43 -3 9 -16 17 -27 17 -11 0 -20 5 -20 10 0 6 9 10 20 10 11 0 20 5 20 10
0 7 7 7 21 0 11 -7 23 -9 27 -6 3 3 0 6 -7 6 -8 0 -10 7 -6 19 5 16 1 19 -26
18 -35 -2 -41 9 -41 76 1 25 -4 37 -14 37 -8 0 -14 7 -14 15 0 8 7 15 15 15
19 0 19 7 1 26 -8 8 -31 14 -51 14 -43 0 -75 15 -75 35 0 8 -5 15 -12 15 -8 0
-7 5 3 16 25 24 116 25 163 1 32 -15 44 -17 58 -8 15 9 20 8 24 -4 9 -21 44
-19 44 3 -1 20 -46 56 -59 47 -6 -3 -6 6 -1 24 8 27 6 29 -26 36 -19 3 -34 11
-34 17 0 6 -3 9 -6 6 -3 -4 -24 0 -47 7 -23 8 -53 13 -67 12 -21 -2 -29 6 -48
46 -12 26 -27 48 -32 48 -6 1 -16 2 -22 3 -7 1 -12 12 -11 24 2 12 -2 22 -9
22 -6 0 -8 3 -5 7 4 3 2 12 -3 18 -16 20 0 45 29 46 39 2 -39 16 -129 23 -101
8 -100 8 -100 18 0 5 -5 6 -10 3 -6 -3 -13 1 -16 9 -7 19 -74 22 -92 4 -7 -7
-12 -8 -12 -4 0 5 -7 3 -15 -4 -8 -7 -12 -16 -10 -21 6 -9 -26 -28 -56 -34
-29 -6 -77 -43 -84 -66 -4 -11 -13 -18 -20 -15 -7 2 -22 -4 -33 -14 -11 -10
-28 -20 -38 -22 -25 -4 -31 47 -10 87 9 17 12 31 7 33 -5 2 -7 12 -4 23 3 10
0 26 -7 34 -6 8 -9 19 -5 25 4 7 -2 14 -14 17 -24 6 -38 40 -22 56 6 6 11 18
11 26 0 11 -4 10 -15 -5 -8 -10 -15 -14 -15 -8 0 6 -15 28 -34 49 -24 27 -45
40 -73 44 -32 5 -38 10 -41 33 -4 34 -30 58 -41 39 -7 -10 -13 -10 -30 -2 -11
7 -21 8 -21 4 0 -4 -7 2 -15 13 -8 11 -15 14 -15 7 0 -18 -20 -16 -20 2 0 15
-7 18 -42 18 -14 0 -18 8 -18 37 0 43 8 54 27 39 10 -9 13 -8 13 2 -1 33 -16
40 -68 33 -43 -5 -52 -10 -52 -26 0 -11 -9 -22 -20 -25 -15 -4 -20 -14 -20
-40 0 -31 -1 -33 -16 -19 -8 9 -13 19 -10 24 7 11 -11 38 -20 29 -4 -4 -7 -27
-5 -51 2 -43 -11 -67 -24 -46 -5 8 -11 8 -20 0 -10 -8 -14 2 -21 47 -14 99
-12 118 12 121 23 3 37 33 27 58 -3 8 -9 11 -14 8 -5 -3 -9 -2 -9 1 0 10 23
30 43 38 9 3 17 17 18 29 1 39 6 113 9 123 5 20 0 36 -10 30 -13 -8 -13 1 0
25 14 26 -6 36 -21 11 -7 -10 -18 -17 -25 -14 -7 3 -14 -12 -18 -42 -5 -29
-18 -58 -36 -78 -22 -25 -27 -39 -23 -62 3 -17 9 -35 14 -40 13 -17 15 -68 2
-72 -6 -2 -13 2 -16 9 -2 7 -2 3 0 -10 2 -12 0 -22 -4 -21 -5 1 -20 1 -34 0
-36 -1 -48 -48 -43 -162 3 -55 1 -88 -5 -85 -10 7 -9 -8 4 -37 6 -15 10 -16
16 -5 6 8 9 2 9 -20 0 -28 -3 -32 -19 -27 -14 4 -23 0 -31 -15 -11 -21 -30
-27 -30 -10 0 5 10 18 22 30 18 17 19 20 5 20 -9 0 -17 7 -17 15 0 8 6 15 13
15 9 0 9 2 -1 9 -15 9 -25 78 -12 86 4 3 3 20 -2 39 -8 26 -8 51 2 95 11 51
16 61 34 62 17 0 16 3 -9 14 l-30 13 28 4 c15 1 27 6 27 11 0 4 0 28 -1 55 0
32 -3 41 -8 28 -7 -19 -8 -19 -14 3 -3 13 -10 20 -15 17 -19 -12 -19 19 0 47
11 15 18 37 16 50 -2 18 -10 22 -39 23 -54 2 -89 -34 -89 -91 0 -14 -3 -24 -8
-21 -12 7 -45 -22 -37 -33 3 -6 -1 -11 -10 -11 -9 0 -14 4 -10 9 3 5 -6 18
-20 29 -15 12 -25 30 -25 46 0 15 -6 29 -14 32 -7 3 -16 23 -20 45 -7 45 -21
50 -38 13 -9 -20 -9 -27 2 -34 7 -4 10 -15 7 -25 -4 -9 -11 -14 -16 -10 -5 3
-12 1 -15 -4 -3 -5 -15 -7 -26 -4 -19 5 -26 -10 -21 -40 1 -5 4 -30 7 -55 7
-57 14 -65 45 -53 25 9 25 8 20 -32 -5 -33 -10 -42 -26 -42 -11 0 -21 -8 -23
-19 -2 -10 0 -16 5 -13 5 3 15 2 23 -3 16 -10 15 -76 0 -95 -6 -7 -6 -15 1
-22 7 -7 8 -13 0 -17 -5 -4 -8 -13 -4 -22 3 -8 -3 -24 -12 -34 -17 -19 -19
-19 -30 -3 -7 10 -13 42 -14 71 0 30 -8 63 -17 78 -11 16 -19 52 -21 97 -6
132 -7 136 -25 141 -12 2 -18 -2 -18 -12 0 -34 -24 -82 -42 -82 -11 0 -18 7
-18 18 0 10 -6 27 -14 38 -8 11 -12 30 -9 45 4 21 0 27 -18 32 -30 8 -35 2
-23 -25 6 -13 7 -36 3 -53 -4 -16 -8 -48 -9 -70 -1 -22 -4 -34 -7 -27 -2 6 -8
10 -13 7 -11 -7 -21 68 -10 79 16 16 12 56 -5 56 -8 0 -15 9 -15 20 0 11 -4
20 -10 20 -5 0 -10 5 -10 11 0 5 4 8 9 4 5 -3 12 -1 16 5 3 5 0 10 -8 10 -16
0 -40 56 -31 71 3 5 0 9 -7 9 -7 0 -9 10 -7 25 4 17 1 25 -8 25 -7 0 -20 12
-28 28 -8 15 -15 21 -16 15 0 -21 -20 -14 -20 7 0 10 9 24 21 31 15 7 19 17
15 32 -3 13 6 39 25 69 16 27 30 60 31 74 3 30 30 57 50 49 15 -6 26 -58 32
-140 2 -32 34 -78 48 -69 4 3 8 -1 8 -8 0 -8 5 -6 11 5 5 9 7 22 3 28 -3 6 -8
38 -10 72 -2 34 -5 74 -8 89 -2 16 0 30 5 34 5 3 9 16 9 30 0 24 25 72 45 86
7 5 6 14 -3 28 -8 13 -8 20 -1 20 6 0 8 8 4 20 -3 11 -3 20 2 20 11 0 33 49
33 72 0 10 5 18 11 18 6 0 8 -9 4 -20 -5 -14 3 -29 28 -52 39 -37 63 -93 45
-104 -7 -4 -8 -2 -4 4 4 7 3 12 -2 12 -5 0 -9 -13 -8 -30 1 -34 12 -39 21 -10
3 11 11 20 16 20 6 0 8 4 5 9 -3 5 2 11 12 13 10 3 22 23 30 53 19 71 42 115
61 115 10 0 27 25 46 64 16 35 33 63 36 61 3 -2 5 6 4 17 -1 12 -10 25 -21 28
-17 6 -17 8 4 19 12 7 26 9 31 6 5 -3 13 4 16 16 4 12 19 33 33 46 16 14 20
23 11 23 -11 0 -11 2 1 10 10 6 11 10 3 10 -7 0 -13 5 -13 11 0 5 4 8 8 5 4
-2 14 -1 22 5 10 6 11 9 3 9 -7 0 -13 6 -13 14 0 44 -48 19 -71 -37 -7 -18
-15 -34 -18 -37 -4 -3 -12 -17 -20 -32 -16 -31 -25 -34 -45 -16 -10 10 -10 17
1 38 18 35 17 107 -2 107 -8 0 -12 -4 -9 -9 3 -5 -7 -20 -23 -34 -27 -23 -28
-23 -31 -4 -2 11 -8 20 -13 20 -5 0 -9 9 -9 20 0 25 -21 34 -58 25 -15 -4 -21
-10 -15 -12 17 -6 -1 -40 -25 -47 -9 -3 -22 -16 -27 -28 -11 -25 -41 -36 -56
-21 -13 13 -1 41 19 45 12 2 17 14 17 43 1 22 5 49 9 60 7 19 7 19 -7 2 -13
-16 -17 -15 -55 23 l-41 39 -33 -17 c-18 -9 -34 -20 -36 -24 -2 -5 -15 -8 -28
-8 -14 0 -27 -7 -30 -15 -8 -20 -24 -19 -39 2 -11 15 -15 15 -29 4 -15 -13
-15 -15 1 -28 16 -13 15 -14 -12 -8 -16 4 -43 6 -60 6 -35 0 -75 27 -80 54 -2
11 -4 20 -5 20 -1 0 -4 20 -6 44 -2 25 -10 49 -16 54 -8 5 -9 10 -3 13 6 2 9
30 8 61 -1 51 -5 62 -36 95 -20 21 -37 48 -39 60 -2 13 -11 24 -20 26 -13 3
-16 -1 -12 -15 3 -10 -2 -6 -11 10 -10 18 -24 27 -41 27 -39 0 -63 -17 -57
-40 3 -11 9 -17 14 -14 5 3 9 1 9 -5 0 -5 -6 -12 -12 -14 -7 -3 -3 -6 10 -6
12 -1 22 -4 23 -8 3 -28 9 -45 23 -58 9 -9 19 -27 22 -41 3 -13 10 -24 16 -24
5 0 8 -6 7 -12 -1 -7 1 -20 4 -28 22 -56 25 -92 9 -110 -35 -39 -38 -46 -35
-91 2 -33 -1 -48 -11 -52 -23 -9 -44 61 -23 75 7 4 3 16 -9 34 -10 15 -23 34
-29 42 -5 9 -19 25 -31 36 -27 28 -63 129 -65 186 -4 90 -1 100 25 100 14 0
28 5 31 10 3 6 1 10 -4 10 -13 0 -51 36 -51 48 0 5 -16 8 -35 7 -21 0 -34 4
-31 10 2 5 -4 23 -13 38 -15 26 -15 29 2 38 9 6 15 14 12 19 -3 5 -1 12 5 15
8 5 7 11 -1 21 -6 8 -9 23 -6 34 5 20 1 20 -569 20 -352 0 -574 -4 -574 -9 0
-6 4 -13 10 -16 6 -3 10 -17 10 -31 0 -14 4 -34 10 -44 5 -10 12 -53 15 -97 3
-43 10 -103 16 -134 11 -57 8 -166 -6 -188 -10 -17 -75 -45 -95 -42 -23 4 -93
41 -115 61 -13 13 -38 20 -75 21 -64 3 -150 26 -150 40 0 6 -4 7 -10 4 -6 -3
-15 -3 -22 1 -12 8 -63 14 -118 15 -19 0 -38 5 -41 11 -5 7 -48 13 -109 15
-56 2 -111 8 -123 15 -41 22 -197 39 -256 28 -30 -5 -57 -10 -60 -10 -3 0 4
-7 15 -15 18 -13 16 -14 -23 -15 -40 0 -41 1 -39 31 l2 31 -45 -7 c-25 -4 -50
-10 -56 -15 -29 -22 -220 -32 -325 -16 -41 7 -84 11 -164 18 -17 2 -31 -2 -33
-9 -3 -8 4 -13 17 -13 12 0 19 -4 16 -9 -3 -5 -15 -7 -26 -4 -14 4 -20 14 -20
34 0 23 3 27 17 22 15 -6 16 -5 3 9 -8 9 -18 14 -22 11 -5 -2 -8 0 -8 4 0 5
-29 7 -65 5 -56 -4 -65 -2 -65 12 0 16 -3 16 -27 2 -30 -16 -60 -27 -81 -32
-8 -1 -22 -10 -32 -19 -11 -10 -24 -14 -31 -9 -7 4 -18 -1 -25 -11 -15 -21
-76 -45 -114 -45 -20 0 -22 -2 -10 -10 11 -7 7 -10 -17 -10 -18 0 -33 5 -33
11 0 7 -14 8 -39 4 -34 -6 -41 -3 -51 14 -6 12 -21 21 -34 21 -25 0 -36 17
-36 56 0 26 -10 30 -28 12 -9 -9 -16 -7 -32 7 -17 16 -38 18 -176 16 -86 -1
-177 -6 -202 -12 -49 -11 -77 -6 -67 12 4 6 19 7 36 4 18 -4 29 -3 29 4 0 6
-6 11 -12 12 -7 0 -4 4 7 9 19 9 19 9 -2 16 -13 3 -23 13 -23 20 0 20 -37 54
-58 54 -10 0 -23 5 -29 11 -6 6 -22 7 -39 3 l-29 -8 25 -7 c24 -7 24 -7 2 -8
-12 -1 -25 -7 -28 -14 -6 -17 40 -68 81 -90 28 -14 28 -16 10 -23 -11 -4 -27
-13 -35 -20 -9 -7 -31 -15 -50 -16 -33 -3 -35 -1 -38 28 -3 27 -8 33 -35 38
-62 12 -100 64 -49 67 10 1 7 4 -8 9 l-25 7 25 11 c14 6 19 11 13 11 -7 1 -13
10 -13 21 0 11 -4 20 -9 20 -15 0 -24 41 -12 53 14 14 14 47 1 47 -5 0 -10 -8
-10 -17 -1 -16 -2 -16 -11 1 -9 14 -8 21 2 27 8 5 -113 9 -293 8 l-308 0 0
-80 c0 -66 -3 -79 -16 -79 -12 0 -15 -6 -11 -21 4 -16 3 -18 -9 -8 -11 9 -14
7 -14 -10 0 -11 -4 -21 -10 -21 -5 0 -10 -9 -10 -20 0 -22 -15 -27 -23 -7 -4
9 -8 9 -15 -1 -7 -11 -10 -10 -16 3 -10 26 -7 85 4 85 6 0 10 14 10 30 0 17
-4 30 -10 30 -5 0 -10 -13 -10 -30 0 -27 -3 -30 -30 -30 -23 0 -30 4 -30 20 0
11 -4 20 -10 20 -5 0 -10 9 -10 20 0 11 5 20 10 20 6 0 10 9 10 20 0 16 -7 20
-31 20 -22 0 -32 5 -36 20 -5 19 -14 20 -129 20 l-124 0 0 -95z m100 69 c0 -3
-6 -12 -14 -20 -16 -15 -32 -2 -21 16 7 11 35 14 35 4z m137 -16 c-3 -8 -6 -5
-6 6 -1 11 2 17 5 13 3 -3 4 -12 1 -19z m43 -64 c0 -20 -4 -25 -22 -22 -27 4
-36 28 -11 29 16 0 16 1 -2 9 -18 8 -17 9 8 9 23 1 27 -3 27 -25z m-150 -38
c0 -11 -19 -15 -25 -6 -3 5 1 10 9 10 9 0 16 -2 16 -4z m-10 -63 c0 -28 -3
-34 -10 -23 -13 20 -13 60 0 60 6 0 10 -17 10 -37z m2959 -192 c-15 -5 -22 6
-14 19 6 9 10 9 16 -1 5 -8 4 -15 -2 -18z m104 12 c-7 -2 -21 -2 -30 0 -10 3
-4 5 12 5 17 0 24 -2 18 -5z m-113 -28 c0 -1 -9 -5 -20 -8 -12 -3 -20 0 -20 8
0 8 8 11 20 8 11 -3 20 -7 20 -8z m-2700 -15 c0 -5 -4 -10 -10 -10 -5 0 -10 5
-10 10 0 6 5 10 10 10 6 0 10 -4 10 -10z m135 -40 c3 -5 -1 -10 -9 -10 -9 0
-16 5 -16 10 0 6 4 10 9 10 6 0 13 -4 16 -10z m-85 -20 c0 -5 -4 -10 -10 -10
-5 0 -10 5 -10 10 0 6 5 10 10 10 6 0 10 -4 10 -10z m-240 -30 c0 -16 -4 -30
-10 -30 -5 0 -10 14 -10 30 0 17 5 30 10 30 6 0 10 -13 10 -30z m320 -30 c0
-5 -4 -10 -10 -10 -5 0 -10 5 -10 10 0 6 5 10 10 10 6 0 10 -4 10 -10z m73
-87 c-3 -7 -9 -10 -15 -7 -5 3 -7 12 -4 20 5 13 -5 18 -31 15 -7 -1 -13 3 -13
9 0 5 12 11 28 12 18 1 12 3 -18 8 -35 5 -38 7 -15 9 17 1 37 6 45 11 12 8 16
2 21 -28 4 -20 4 -42 2 -49z m401 72 c-4 -8 -10 -15 -14 -15 -5 0 -15 -3 -24
-6 -10 -4 -16 -1 -16 9 0 9 10 18 23 20 12 2 25 5 29 6 4 0 5 -6 2 -14z m-794
-5 c0 -5 -7 -10 -15 -10 -8 0 -15 5 -15 10 0 6 7 10 15 10 8 0 15 -4 15 -10z
m50 -90 c0 -5 -4 -10 -10 -10 -5 0 -10 5 -10 10 0 6 5 10 10 10 6 0 10 -4 10
-10z m20 -44 c0 -17 -32 -15 -38 2 -2 7 6 12 17 12 12 0 21 -6 21 -14z m5320
-47 c0 -6 -4 -7 -10 -4 -5 3 -10 11 -10 16 0 6 5 7 10 4 6 -3 10 -11 10 -16z
m237 -29 c4 -8 7 -33 9 -54 1 -21 8 -43 16 -48 8 -6 4 -7 -12 -2 -22 6 -23 5
-11 -10 12 -14 11 -16 -4 -16 -14 0 -16 6 -11 30 3 17 1 30 -4 30 -5 0 -14 9
-20 21 -16 28 -23 72 -11 65 5 -3 15 1 22 10 11 13 14 13 17 3 2 -8 6 -21 9
-29z m363 -32 c0 -5 -4 -8 -10 -8 -5 0 -10 10 -10 23 0 18 2 19 10 7 5 -8 10
-18 10 -22z m-620 -65 c0 -19 32 -53 50 -53 32 0 52 -108 21 -118 -6 -2 -11
-8 -11 -13 0 -6 4 -8 9 -4 5 3 13 0 16 -6 5 -7 -1 -9 -16 -7 -20 2 -26 12 -35
57 -12 50 -34 92 -34 63 0 -7 -7 -12 -15 -12 -12 0 -13 5 -7 18 11 20 5 45 -9
36 -5 -3 -9 10 -9 30 0 19 6 36 13 39 13 4 27 -11 27 -30z m335 17 c4 -6 -6
-10 -22 -9 -25 0 -26 1 -8 9 11 5 21 9 22 9 1 1 5 -3 8 -9z m-215 -9 c0 -14
-18 -23 -30 -16 -6 4 -8 11 -5 16 8 12 35 12 35 0z m210 -32 c-12 -22 -22 -19
-26 6 -1 9 6 15 17 15 17 0 18 -3 9 -21z m717 5 c-3 -3 -12 -4 -19 -1 -8 3 -5
6 6 6 11 1 17 -2 13 -5z m-816 -31 c0 -5 2 -19 4 -33 4 -30 -15 -84 -26 -73
-9 10 -20 94 -13 105 6 10 34 11 35 1z m757 -55 c1 -18 -3 -40 -8 -48 -7 -11
-10 -4 -10 26 0 33 6 54 15 54 0 0 2 -15 3 -32z m-152 -44 c-3 -9 -6 -18 -6
-20 0 -2 -4 -4 -9 -4 -5 0 -7 9 -4 20 3 11 10 20 15 20 6 0 7 -7 4 -16z m104
-4 c0 -5 -4 -10 -10 -10 -5 0 -10 5 -10 10 0 6 5 10 10 10 6 0 10 -4 10 -10z
m-814 -68 c-15 -15 -16 -14 -16 17 0 30 1 31 16 16 16 -15 16 -18 0 -33z m804
38 c0 -5 -5 -10 -11 -10 -5 0 -7 5 -4 10 3 6 8 10 11 10 2 0 4 -4 4 -10z
m-691 -348 c-5 -2 -9 -11 -10 -20 0 -11 -4 -8 -10 8 -6 13 -7 36 -3 50 l7 25
12 -30 c7 -17 9 -31 4 -33z m45 -39 c8 -38 5 -93 -6 -99 -4 -3 -8 18 -8 45 0
29 -5 51 -11 51 -5 0 -8 4 -5 9 4 5 0 12 -6 14 -7 3 -3 6 9 6 16 1 23 -6 27
-26z m84 -73 c-3 -43 -1 -61 9 -64 7 -3 13 -13 13 -22 0 -10 -3 -14 -7 -10 -4
4 -13 -10 -20 -31 -12 -37 -13 -37 -8 -5 3 21 -1 43 -13 60 -9 14 -11 23 -4
19 6 -5 12 -4 12 2 0 5 -4 13 -10 16 -5 3 -10 14 -9 23 0 14 2 13 9 -3 7 -16
9 -11 9 21 1 37 7 54 19 54 2 0 2 -27 0 -60z m-148 -46 c0 -8 -4 -12 -10 -9
-5 3 -10 10 -10 16 0 5 5 9 10 9 6 0 10 -7 10 -16z m259 -255 c1 8 4 12 7 8 9
-9 -7 -157 -17 -151 -5 3 -9 44 -8 92 1 59 4 79 9 62 4 -14 8 -19 9 -11z m623
-227 c-6 -2 -7 -12 -4 -24 3 -13 -1 -25 -10 -32 -8 -6 -16 -14 -16 -18 -1 -5
-5 -9 -9 -10 -5 -2 -13 26 -20 62 -8 50 -13 60 -18 43 -4 -13 -11 -21 -15 -18
-5 3 -6 -4 -3 -15 3 -11 0 -20 -6 -20 -6 0 -11 19 -11 45 0 43 1 45 29 45 16
0 42 7 57 15 l29 15 3 -42 c2 -24 -1 -44 -6 -46z m308 28 c0 -5 -7 -10 -15
-10 -8 0 -15 5 -15 10 0 6 7 10 15 10 8 0 15 -4 15 -10z m-335 -140 c-3 -5
-10 -10 -16 -10 -5 0 -9 5 -9 10 0 6 7 10 16 10 8 0 12 -4 9 -10z m455 -40 c0
-5 -4 -10 -9 -10 -6 0 -13 5 -16 10 -3 6 1 10 9 10 9 0 16 -4 16 -10z m-400
-80 c0 -42 -5 -46 -30 -30 -11 7 -12 10 -2 10 8 0 13 10 12 23 -3 31 -1 37 10
37 6 0 10 -18 10 -40z m-520 -65 c0 -8 -2 -15 -4 -15 -2 0 -6 7 -10 15 -3 8
-1 15 4 15 6 0 10 -7 10 -15z m1315 -205 c3 -5 1 -10 -4 -10 -6 0 -11 5 -11
10 0 6 2 10 4 10 3 0 8 -4 11 -10z m-835 -139 c0 -11 -4 -22 -9 -25 -11 -7
-23 22 -15 35 9 16 24 10 24 -10z m120 -55 c0 -3 -4 -8 -10 -11 -5 -3 -10 -1
-10 4 0 6 5 11 10 11 6 0 10 -2 10 -4z m-888 -238 c5 -108 -19 -121 -28 -16
-2 35 0 55 9 60 9 6 9 8 0 8 -7 0 -13 5 -13 10 0 6 6 10 14 10 11 0 15 -18 18
-72z m2488 -56 c0 -10 -5 -23 -12 -30 -15 -15 -48 -16 -48 -2 0 6 -6 10 -14
10 -8 0 -18 5 -22 11 -5 8 2 10 23 7 17 -2 35 2 42 9 17 18 31 16 31 -5z
m-2480 -456 c0 -2 -3 -11 -6 -20 -9 -23 -30 -20 -30 4 0 13 7 20 18 20 10 0
18 -2 18 -4z m650 -87 c0 -17 -4 -28 -10 -24 -5 3 -10 17 -10 31 0 13 5 24 10
24 6 0 10 -14 10 -31z m-78 -56 c0 -10 2 -23 2 -30 1 -6 5 -15 9 -19 9 -10
-12 -34 -30 -34 -11 0 -13 10 -9 43 3 23 5 45 5 50 2 15 21 6 23 -10z m2083
-43 c3 -13 -1 -30 -7 -37 -6 -8 -12 -51 -13 -96 -1 -51 -6 -82 -13 -85 -7 -2
-12 -10 -12 -18 0 -8 -9 -14 -21 -14 -13 0 -18 4 -13 12 5 7 3 8 -5 4 -7 -5
-10 -14 -7 -21 2 -7 -2 -16 -11 -19 -13 -5 -13 -9 -2 -23 12 -15 12 -16 -4
-10 -11 4 -20 1 -23 -7 -8 -20 -36 -29 -45 -14 -6 9 -13 7 -30 -7 l-22 -20 12
22 c6 12 17 26 25 30 12 7 25 44 28 81 1 8 13 26 27 40 14 15 37 52 51 82 23
53 72 131 78 126 1 -2 5 -14 7 -26z m-8276 -16 c2 -2 2 -7 -2 -10 -9 -9 -57 5
-57 16 0 9 47 4 59 -6z m5581 4 c0 21 25 13 46 -15 28 -39 68 -190 58 -217 -8
-21 -33 -28 -52 -13 -22 16 -26 37 -7 37 10 0 6 12 -15 44 -24 35 -30 55 -30
96 0 31 -4 49 -10 45 -6 -3 -10 4 -10 17 0 18 2 20 10 8 6 -10 10 -11 10 -2z
m-4662 -95 c-15 -2 -42 -2 -60 0 -18 2 -6 4 27 4 33 0 48 -2 33 -4z m5252 -3
c0 -5 -2 -10 -4 -10 -3 0 -8 5 -11 10 -3 6 -1 10 4 10 6 0 11 -4 11 -10z
m-5420 -14 c0 -2 -13 -6 -30 -8 -16 -3 -30 -1 -30 4 0 4 14 8 30 8 17 0 30 -2
30 -4z m165 -6 c-41 -10 -107 -11 -122 -2 -6 4 25 8 70 8 54 1 72 -2 52 -6z
m-397 -51 c-3 -8 -7 -3 -11 10 -4 17 -3 21 5 13 5 -5 8 -16 6 -23z m200 24
c-10 -2 -18 -9 -18 -15 0 -6 -3 -9 -6 -5 -10 10 6 27 24 26 15 -1 15 -2 0 -6z
m5269 -46 c-8 -18 -14 -21 -23 -13 -8 8 -7 14 5 23 24 19 30 15 18 -10z m1060
-79 c-2 -18 -4 -6 -4 27 0 33 2 48 4 33 2 -15 2 -42 0 -60z m-6507 37 c0 -8
-4 -15 -9 -15 -5 0 -11 7 -15 15 -3 9 0 15 9 15 8 0 15 -7 15 -15z m100 1 c0
-3 -4 -8 -10 -11 -5 -3 -10 -1 -10 4 0 6 5 11 10 11 6 0 10 -2 10 -4z m6495
-22 c14 -9 25 -22 25 -29 0 -26 -45 -27 -78 -2 -10 8 -9 14 5 28 22 22 19 22
48 3z m-1185 -20 c0 -8 -5 -12 -10 -9 -6 4 -8 11 -5 16 9 14 15 11 15 -7z
m-295 -26 c-1 -16 -8 -23 -23 -24 -26 -1 -28 9 -6 30 22 22 31 20 29 -6z
m-5144 -41 c-13 -13 -15 11 -4 40 7 16 8 15 11 -6 2 -13 -1 -28 -7 -34z m382
46 c-7 -2 -19 -2 -25 0 -7 3 -2 5 12 5 14 0 19 -2 13 -5z m-256 -45 c-3 -8 -6
-5 -6 6 -1 11 2 17 5 13 3 -3 4 -12 1 -19z m7403 6 c0 -10 -6 -14 -14 -11 -9
4 -17 -1 -19 -11 -4 -13 -5 -11 -6 5 -1 19 10 30 32 32 4 1 7 -6 7 -15z
m-6340 -24 c-20 -13 -40 -13 -40 0 0 6 12 10 28 10 21 0 24 -2 12 -10z m6420
-12 c0 -4 -7 -8 -15 -8 -8 0 -15 4 -15 8 0 5 7 9 15 9 8 0 15 -4 15 -9z m-160
-8 c0 -5 -7 -10 -16 -10 -8 0 -12 -4 -9 -10 4 -6 -7 -10 -25 -10 -38 0 -31 16
13 29 18 5 33 10 35 10 1 1 2 -3 2 -9z m-6654 -20 c0 -22 -11 -26 -22 -9 -5 9
5 22 21 29 1 0 1 -9 1 -20z m214 5 c0 -12 -19 -12 -23 0 -4 9 -1 12 9 8 7 -3
14 -7 14 -8z m205 5 c-11 -5 -27 -9 -35 -9 -9 0 -8 4 5 9 11 5 27 9 35 9 9 0
8 -4 -5 -9z m3915 -13 c0 -5 8 -16 18 -23 14 -11 15 -16 4 -33 -7 -12 -9 -21
-5 -21 13 0 33 -52 33 -86 0 -18 6 -35 13 -37 9 -4 9 -8 -1 -15 -22 -15 1 -52
32 -52 24 0 8 -27 -23 -39 -35 -15 -37 -45 -3 -61 15 -8 30 -13 34 -12 4 1 10
-10 14 -26 3 -15 14 -45 24 -67 26 -58 32 -83 22 -89 -14 -9 -31 16 -45 65 -8
26 -19 44 -27 44 -8 0 -14 -6 -12 -12 1 -7 -6 -13 -15 -13 -12 0 -26 19 -41
53 -13 28 -29 62 -34 74 -6 12 -8 47 -5 77 5 53 -8 116 -25 116 -4 0 -8 9 -8
21 0 12 4 18 11 13 8 -5 10 5 5 32 -17 102 -17 102 10 102 13 0 24 -5 24 -11z
m1520 -17 c0 -16 7 -20 30 -20 28 0 30 -2 30 -41 l0 -41 -37 7 c-37 7 -56 22
-47 36 2 4 13 5 23 2 10 -3 22 0 25 6 4 7 -1 11 -13 11 -12 0 -21 3 -21 8 0 4
-3 17 -6 30 -4 13 -2 22 5 22 6 0 11 -9 11 -20z m-5820 -65 c0 -8 -7 -15 -15
-15 -8 0 -15 7 -15 15 0 8 7 15 15 15 8 0 15 -7 15 -15z m6711 -39 c-9 -11 -9
-15 1 -19 7 -3 3 -6 -9 -6 -13 -1 -23 5 -23 12 0 18 10 27 28 27 11 0 12 -3 3
-14z m-2014 -11 c3 -9 -1 -23 -9 -33 -9 -9 -18 -24 -21 -32 -4 -11 -6 -9 -6 5
-1 11 -8 32 -15 48 -15 27 -14 27 15 27 17 0 32 -6 36 -15z m1429 -147 c2 1
28 -16 58 -38 29 -22 62 -40 73 -40 11 0 34 -3 51 -6 38 -8 33 -32 -6 -28 -15
2 -19 1 -9 -2 25 -8 21 -19 -8 -20 -17 -1 -25 3 -26 15 0 13 -1 14 -7 1 -11
-23 -29 -22 -36 3 -6 23 -46 47 -79 47 -19 0 -47 53 -47 87 1 16 2 16 16 -2 8
-11 17 -19 20 -17z m-410 -57 c-11 -17 -36 -13 -30 4 4 9 0 15 -7 15 -11 0
-11 2 1 10 18 11 46 -12 36 -29z m524 -111 c0 -5 -7 -10 -15 -10 -8 0 -15 5
-15 10 0 6 7 10 15 10 8 0 15 -4 15 -10z m-1320 -120 c0 -5 -9 -10 -20 -10
-11 0 -20 5 -20 10 0 6 9 10 20 10 11 0 20 -4 20 -10z m-26 -153 c5 -27 -8
-46 -19 -28 -5 10 4 65 11 59 1 -2 5 -16 8 -31z m-4489 13 c-3 -5 -1 -10 4
-10 6 0 11 -7 11 -15 0 -17 -16 -20 -25 -5 -7 12 0 40 10 40 4 0 3 -4 0 -10z
m50 -40 c-11 -17 -23 -1 -18 21 5 19 7 19 15 5 5 -9 6 -21 3 -26z m-138 8 c-3
-8 -6 -5 -6 6 -1 11 2 17 5 13 3 -3 4 -12 1 -19z m4543 -55 c0 -10 -16 -26
-36 -36 -31 -15 -36 -16 -31 -2 4 8 2 15 -3 15 -6 0 -10 9 -10 20 0 17 7 20
40 20 32 0 40 -4 40 -17z m0 -133 c0 -5 -4 -10 -10 -10 -5 0 -10 5 -10 10 0 6
5 10 10 10 6 0 10 -4 10 -10z m-3657 -168 c-1 -33 2 -39 28 -51 30 -13 30 -15
26 -67 -4 -52 -11 -67 -49 -106 -24 -24 -23 -33 7 -46 34 -15 33 -42 -1 -42
-19 0 -25 -4 -20 -15 3 -8 1 -15 -4 -15 -6 0 -9 -3 -8 -7 4 -21 -18 -44 -51
-52 -61 -17 -91 -20 -91 -11 0 5 -7 7 -15 4 -21 -8 -45 14 -45 40 0 12 13 37
30 56 16 19 29 41 30 48 0 6 5 12 10 12 6 0 10 9 10 20 0 11 5 20 10 20 6 0
10 7 10 15 0 8 3 15 8 15 8 0 14 10 55 94 16 32 31 74 34 92 8 47 29 44 26 -4z
m-2270 -27 c-2 -11 -82 -30 -90 -21 -3 3 -3 12 1 21 4 12 17 15 48 13 24 -2
42 -7 41 -13z m767 -1044 c0 -5 13 -12 30 -16 26 -6 28 -8 16 -21 -8 -8 -20
-14 -26 -14 -6 0 -9 -4 -6 -9 9 -14 -43 -31 -99 -31 -42 0 -59 5 -74 21 -16
18 -40 71 -24 55 3 -3 15 1 27 9 23 17 156 21 156 6z m400 0 c0 -24 -33 -42
-68 -36 -40 6 -55 15 -26 15 10 0 30 7 44 14 30 17 50 19 50 7z m5555 -449
c-9 -23 -24 3 -17 30 4 18 6 19 14 4 5 -10 7 -25 3 -34z m41 -1479 c-10 -10
-19 5 -10 18 6 11 8 11 12 0 2 -7 1 -15 -2 -18z m-836 -98 c0 -23 3 -24 69
-20 39 2 75 6 80 10 7 4 11 -7 11 -28 0 -23 -6 -37 -16 -41 -24 -9 -172 -7
-192 3 -9 5 -44 14 -76 20 -47 8 -62 8 -68 -2 -5 -8 -8 -8 -8 -1 0 7 -22 11
-60 10 -71 -1 -86 16 -43 50 24 19 30 20 44 8 18 -16 56 -19 61 -4 4 12 90 16
107 6 6 -4 11 -15 11 -24 0 -11 7 -6 19 15 24 38 61 36 61 -2z m474 3 c19 -18
-10 -44 -59 -52 -104 -18 -145 -18 -151 -1 -9 22 -3 26 45 28 22 0 43 7 45 14
4 8 19 10 51 6 29 -3 45 -1 45 6 0 14 8 14 24 -1z m-1043 -27 c31 0 63 -7 75
-16 19 -14 19 -15 -3 -21 -13 -3 -23 -10 -23 -15 0 -12 -137 -11 -145 1 -3 6
-24 10 -46 10 -31 0 -39 4 -39 18 0 27 3 28 67 26 32 -1 83 -2 114 -3z m174
-1 c4 -6 -2 -9 -14 -7 -29 4 -39 17 -13 17 11 0 24 -5 27 -10z m1077 -52 c104
-23 150 -70 93 -96 -39 -18 -59 -15 -137 18 -38 17 -77 30 -84 30 -20 0 -29
27 -14 45 15 18 70 19 142 3z m-838 -19 c44 -20 44 -63 -1 -80 -13 -5 -66 -9
-117 -9 -71 0 -97 4 -106 15 -16 19 3 45 31 45 11 0 19 4 19 8 0 4 17 9 38 10
21 2 51 7 67 11 41 12 41 12 69 0z m-640 -15 c9 -3 16 -16 16 -28 0 -24 -21
-32 -157 -57 -50 -9 -66 -9 -78 1 -14 12 -14 15 -2 27 44 45 170 77 221 57z
m1777 -15 c33 -12 59 -28 59 -35 0 -18 -31 -18 -56 1 -10 8 -27 15 -36 15 -10
0 -18 5 -18 10 0 6 -7 10 -15 10 -8 0 -15 5 -15 10 0 15 16 12 81 -11z m-464
-14 c7 -8 13 -27 13 -43 0 -26 -4 -30 -38 -36 -47 -7 -189 8 -225 25 -33 15
-35 45 -4 55 75 24 229 23 254 -1z m-1002 -77 c37 -17 29 -48 -15 -64 -42 -15
-120 -18 -120 -4 0 6 -20 10 -44 10 -25 0 -47 4 -50 9 -9 14 60 42 127 50 34
5 65 9 69 10 4 0 19 -4 33 -11z m683 -10 c15 -15 16 -55 0 -64 -6 -4 -30 -11
-52 -15 -58 -11 -216 28 -216 53 0 11 10 20 28 24 15 3 32 7 37 9 28 10 192 4
203 -7z m-1683 -29 c9 -14 -24 -38 -52 -39 -29 0 -29 14 -1 34 26 19 44 20 53
5z m329 -35 c42 -16 -37 -65 -107 -66 -58 -1 -64 15 -15 40 67 32 92 38 122
26z m2081 -16 c51 -20 68 -48 54 -85 -15 -40 -59 -30 -118 26 -51 48 -58 61
-44 75 9 9 66 0 108 -16z m-192 -24 c42 -31 48 -39 45 -67 -3 -29 -6 -32 -40
-35 -22 -2 -38 1 -38 7 0 6 -8 11 -17 11 -10 0 -31 11 -47 25 -16 13 -36 27
-46 30 -19 6 -30 31 -23 53 3 8 25 12 61 12 49 0 64 -5 105 -36z m397 14 c24
-13 49 -32 57 -44 14 -22 9 -53 -11 -55 -6 0 -19 -2 -28 -4 -19 -4 -58 21 -58
37 0 6 -6 19 -14 27 -7 9 -17 26 -20 39 -6 18 -3 22 12 22 11 0 39 -10 62 -22z
m-1226 -20 c22 -36 -4 -52 -100 -64 -96 -12 -97 -12 -134 0 -24 8 -40 23 -40
38 0 8 122 45 165 50 49 5 97 -6 109 -24z m-670 -14 c20 -8 21 -44 1 -44 -8 0
-15 -4 -15 -9 0 -5 -15 -11 -32 -14 -18 -3 -51 -10 -73 -17 -70 -21 -107 -24
-116 -9 -13 21 -12 24 26 38 19 7 35 16 35 20 0 8 17 16 70 31 33 10 84 12
104 4z m1242 -15 c3 -5 14 -9 25 -9 30 0 69 -40 69 -71 0 -39 -44 -56 -113
-41 -29 6 -68 14 -88 17 -41 6 -89 39 -89 60 0 9 21 18 58 25 31 6 64 14 72
19 20 11 59 11 66 0z m952 -6 c-2 -10 -13 -19 -25 -21 -12 -2 -25 -11 -28 -22
-6 -18 -48 -32 -72 -23 -9 4 -13 17 -11 37 3 29 5 31 45 31 22 0 45 3 49 8 15
15 46 7 42 -10z m-1876 -82 c12 -11 18 -26 15 -35 -10 -26 -77 -48 -132 -43
-63 6 -116 15 -123 21 -9 9 20 36 39 36 10 0 21 5 24 10 3 6 19 10 35 10 16 0
32 5 35 10 11 18 84 11 107 -9z m-1608 -6 c4 -11 -2 -15 -22 -15 -26 1 -26 1
-8 15 24 18 23 18 30 0z m2269 -7 c14 -7 31 -23 37 -36 16 -36 -11 -56 -84
-60 -49 -3 -72 1 -119 22 -32 14 -66 26 -77 26 -30 0 -25 34 8 47 38 15 202
16 235 1z m-2470 -30 c25 -13 18 -52 -9 -56 -12 -2 -44 7 -70 19 -60 28 -57
25 -49 39 8 13 101 12 128 -2z m777 -7 c0 -14 -25 -31 -58 -37 -36 -7 -40 1
-15 28 16 18 73 26 73 9z m2458 -80 c-3 -35 -4 -36 -45 -36 -34 0 -46 -5 -59
-25 -10 -14 -19 -27 -20 -28 -8 -12 -44 13 -54 38 -23 55 3 74 60 45 25 -13
29 -13 34 1 3 9 6 24 6 34 0 24 18 29 53 17 25 -8 28 -14 25 -46z m-2083 24
c0 -30 -110 -68 -159 -54 -20 5 -36 13 -36 17 0 14 126 60 160 59 28 -2 35 -6
35 -22z m1039 -20 c26 -20 14 -59 -23 -75 -39 -16 -207 -16 -226 0 -28 23 -18
48 23 60 20 5 44 14 52 20 23 15 152 12 174 -5z m784 -22 c37 -27 56 -67 43
-91 -14 -27 -50 -18 -98 23 -21 17 -48 37 -60 43 -18 10 -20 18 -14 51 3 11
107 -9 129 -26z m-1429 -17 c27 -32 -56 -73 -182 -91 -31 -5 -52 -3 -62 5 -19
16 -8 26 74 68 70 35 149 44 170 18z m1277 -73 c44 -51 24 -93 -45 -93 -23 0
-50 5 -61 10 -11 6 -29 15 -40 20 -11 6 -28 10 -37 10 -28 1 -66 34 -61 56 2
15 15 20 63 25 104 11 154 3 181 -28z m-952 -32 c31 -35 19 -52 -66 -91 -15
-7 -37 -10 -50 -7 -13 3 -48 12 -78 20 -30 7 -55 19 -54 25 1 7 2 16 3 21 0 4
27 16 59 25 31 10 62 19 67 21 6 2 31 4 56 4 33 1 51 -4 63 -18z m589 -6 c32
-5 97 -52 97 -69 0 -3 -10 -14 -22 -26 -17 -15 -35 -20 -79 -20 -32 0 -61 5
-64 10 -3 6 -17 10 -30 10 -13 0 -27 5 -30 10 -3 6 -14 10 -24 10 -29 0 -71
24 -71 41 0 22 36 38 95 42 52 3 65 2 128 -8z m-1605 -33 c2 -7 -5 -16 -17
-19 -12 -3 -21 -9 -21 -14 0 -5 -7 -9 -16 -9 -9 0 -29 -9 -44 -20 -43 -30 -44
-10 -2 38 30 33 43 41 66 39 16 -1 31 -8 34 -15z m372 -61 c0 -11 -15 -30 -32
-43 -27 -19 -44 -22 -96 -21 -35 1 -67 5 -70 8 -8 8 10 37 29 45 8 4 23 12 34
18 11 6 46 11 78 11 50 1 57 -1 57 -18z m1000 -39 c27 -22 21 -54 -14 -77 -32
-22 -176 -31 -215 -15 -42 17 -43 57 -3 66 15 4 41 15 57 25 42 25 145 25 175
1z m-622 -42 c18 -30 -3 -57 -63 -79 -76 -28 -156 -35 -180 -16 -20 15 -20 15
5 35 14 11 30 24 37 30 43 35 82 50 133 50 44 0 58 -4 68 -20z m1207 -47 c58
-28 59 -83 1 -83 -74 0 -212 59 -189 80 23 23 143 25 188 3z m-229 -75 c46
-22 51 -86 8 -102 -23 -9 -76 -7 -110 3 -16 5 -64 20 -106 32 -57 18 -78 29
-78 41 0 24 15 31 90 43 67 11 155 4 196 -17z m-1611 8 c17 -12 17 -16 5 -31
-8 -9 -44 -32 -82 -51 -105 -53 -126 -44 -58 26 38 39 84 70 106 70 5 0 19 -6
29 -14z m946 -5 c20 -16 22 -23 14 -47 -14 -40 -75 -68 -129 -60 -23 4 -60 9
-83 12 -23 3 -48 13 -55 21 -10 13 -8 19 16 38 65 52 194 71 237 36z m-608
-83 c7 -20 -11 -58 -30 -64 -10 -3 -26 -10 -35 -15 -24 -12 -115 -12 -123 1
-3 6 -15 10 -26 10 -10 0 -19 3 -19 6 0 11 53 49 84 61 43 16 143 16 149 1z
m985 -44 c46 -22 63 -51 50 -79 -9 -19 -23 -26 -80 -35 -66 -11 -101 -10 -177
5 -73 15 -76 55 -5 76 24 7 44 17 44 21 0 4 9 8 19 8 11 0 23 5 26 10 10 15
88 12 123 -6z m-650 -40 c34 -10 40 -51 11 -78 -43 -38 -214 -65 -242 -37 -15
15 2 44 31 51 12 3 32 14 44 25 42 35 107 52 156 39z m-913 -94 c7 -11 -47
-70 -64 -70 -18 0 -13 16 16 49 29 33 38 37 48 21z m314 -24 c20 -24 -4 -54
-64 -81 -70 -31 -115 -36 -115 -14 0 16 77 89 94 89 8 0 18 5 21 10 9 15 51
12 64 -4z m975 -25 c16 -17 18 -26 11 -47 -6 -15 -17 -30 -25 -34 -57 -28 -71
-32 -97 -26 -21 6 -152 33 -170 36 -2 0 -3 8 -3 18 0 26 75 65 140 73 76 9
120 3 144 -20z m658 -12 c48 -26 58 -98 14 -100 -37 -2 -58 2 -145 31 -81 26
-109 48 -82 65 39 23 171 26 213 4z m-1321 -59 c10 -6 19 -19 19 -28 0 -20
-33 -52 -55 -52 -7 0 -17 -4 -20 -10 -8 -14 -68 -13 -132 2 -55 13 -62 25 -26
43 12 6 28 17 36 24 35 28 140 41 178 21z m1139 -81 c55 -31 60 -63 13 -88
-27 -14 -259 -15 -268 -1 -3 6 -14 10 -24 10 -10 0 -24 7 -31 15 -18 22 4 45
44 45 17 0 47 8 66 19 51 27 151 27 200 0z m-779 -11 c31 -10 48 -24 49 -39 0
-14 -37 -46 -65 -56 -80 -28 -136 -35 -181 -23 -56 16 -58 39 -5 62 21 9 45
24 54 32 8 8 37 19 63 24 27 6 49 10 50 11 1 0 16 -4 35 -11z m-907 -64 c7
-19 -39 -64 -65 -64 -23 0 -23 3 -3 46 18 37 57 47 68 18z m280 -40 c9 -3 16
-18 16 -33 0 -20 -8 -29 -32 -40 -18 -8 -35 -17 -38 -20 -12 -15 -52 -31 -74
-31 -45 0 -40 29 14 81 49 48 76 58 114 43z m1032 -16 c4 -5 18 -8 30 -8 14 0
25 -8 29 -20 9 -29 -3 -60 -24 -60 -9 0 -22 -5 -28 -11 -11 -11 -71 -9 -240 7
-64 6 -84 22 -56 45 20 17 82 39 110 39 12 0 24 4 27 9 7 10 141 9 152 -1z
m-702 -84 c27 -26 -1 -61 -65 -84 -45 -16 -169 -5 -169 15 0 51 195 109 234
69z m387 -74 c26 -15 25 -54 -3 -67 -13 -6 -52 -16 -88 -22 -83 -15 -130 -32
-130 -46 0 -6 7 -20 15 -31 8 -10 15 -29 15 -40 0 -24 -45 -73 -69 -75 -50 -4
-98 19 -112 53 -11 28 -4 68 12 68 11 0 21 8 73 55 99 89 228 136 287 105z
m-911 -77 c0 -16 -35 -43 -57 -43 -35 0 -30 50 7 62 15 5 50 -8 50 -19z m1445
-20 c62 -32 80 -60 63 -98 -6 -14 -17 -25 -25 -25 -7 0 -13 -4 -13 -10 0 -5
-24 -10 -54 -10 -30 0 -58 5 -61 10 -3 6 -15 10 -26 10 -24 0 -44 40 -36 72 5
18 77 78 94 78 2 0 28 -12 58 -27z m-1167 -35 c20 -20 14 -38 -15 -49 -16 -6
-41 -17 -57 -25 -42 -21 -86 -19 -86 4 0 21 24 50 55 69 26 16 88 16 103 1z
m-393 -108 c7 -12 -12 -40 -27 -40 -16 0 -21 32 -7 41 18 12 26 11 34 -1z
m115 -101 c0 -40 -3 -49 -22 -55 -32 -10 -51 21 -42 71 9 56 22 70 45 49 14
-12 19 -31 19 -65z m360 51 c7 -17 20 -36 29 -43 64 -47 32 -136 -50 -137 -77
0 -116 93 -67 163 40 57 69 63 88 17z m1314 -8 c3 -9 24 -35 46 -57 63 -63 49
-115 -22 -79 -67 34 -120 119 -91 147 14 15 62 7 67 -11z m-514 -37 c19 -14
41 -25 50 -25 8 0 26 -7 38 -16 51 -35 7 -97 -66 -92 -37 3 -46 8 -59 33 -30
56 -33 65 -33 88 0 45 21 48 70 12z m-332 -17 c7 -7 12 -20 12 -30 0 -10 6
-29 14 -41 23 -35 29 -89 13 -111 -18 -25 -83 -24 -103 1 -39 50 -47 75 -34
114 22 67 67 98 98 67z m707 -95 c87 -59 112 -107 73 -143 -25 -23 -62 -25
-122 -8 -57 17 -87 69 -60 105 7 10 14 24 14 32 0 15 28 40 45 41 6 0 28 -12
50 -27z m-1700 -13 c3 -10 1 -28 -4 -39 -6 -11 -11 -28 -11 -38 0 -19 -26 -46
-48 -50 -7 -2 -12 4 -12 13 0 29 22 104 31 104 5 0 9 7 9 15 0 22 28 18 35 -5z
m279 -8 c8 -15 17 -48 21 -73 6 -40 4 -49 -16 -68 -27 -25 -71 -28 -90 -5 -16
20 -13 92 6 110 7 8 16 23 20 33 3 11 14 22 23 24 9 3 18 5 19 6 1 0 9 -11 17
-27z m486 -72 c0 -10 5 -22 10 -25 6 -3 10 -27 10 -52 0 -61 -28 -93 -81 -93
-27 0 -45 8 -69 30 -27 25 -31 34 -25 61 8 34 72 105 102 111 26 6 53 -10 53
-32z m1243 -165 c35 -48 47 -72 45 -93 -5 -43 -46 -42 -86 3 -63 69 -72 150
-17 154 6 1 32 -28 58 -64z m-859 -10 c19 -60 17 -70 -14 -78 -28 -7 -67 27
-72 63 -6 43 7 57 63 69 3 0 13 -24 23 -54z m-1115 8 c23 -89 24 -113 6 -133
-45 -50 -72 -10 -61 88 10 86 38 109 55 45z m392 -5 c7 -18 26 -46 41 -63 15
-16 28 -36 28 -43 0 -25 -32 -61 -61 -67 -107 -24 -155 82 -77 171 37 42 52
43 69 2z m1044 2 c10 -11 31 -20 47 -20 30 0 78 -38 78 -61 0 -7 -12 -26 -27
-41 -19 -20 -36 -28 -62 -28 -68 0 -141 116 -99 158 18 18 43 15 63 -8z m-565
-77 c6 -16 22 -52 37 -80 26 -50 27 -55 13 -80 -13 -23 -24 -29 -59 -31 -37
-3 -47 1 -72 27 -46 49 -36 130 20 168 43 29 49 29 61 -4z m978 -79 c69 -75
68 -113 -5 -143 -26 -10 -38 -10 -70 0 -80 27 -105 79 -63 132 11 14 20 32 20
40 0 9 6 18 13 20 33 14 55 4 105 -49z m-1710 -34 c7 -11 15 -46 18 -78 7 -64
-1 -77 -53 -88 -41 -8 -64 16 -57 59 7 39 27 87 35 87 4 0 9 9 12 20 7 26 29
26 45 0z m1143 0 c13 6 58 -26 61 -44 7 -40 -2 -56 -33 -56 -25 0 -29 4 -29
26 0 14 -6 32 -14 40 -8 7 -12 23 -9 35 4 13 8 17 13 9 4 -6 9 -11 11 -10z
m-670 -33 c8 -7 24 -36 34 -64 18 -49 18 -55 3 -87 -27 -55 -95 -60 -145 -10
-33 34 -30 73 11 116 31 33 64 57 76 57 3 0 12 -5 21 -12z m-800 -21 c13 8 11
-73 -3 -99 -22 -42 -36 -50 -54 -32 -14 13 -15 22 -4 63 12 48 41 93 48 73 2
-6 8 -9 13 -5z m1288 -125 c65 -91 -26 -174 -116 -105 -42 32 -42 59 0 106 50
56 76 56 116 -1z m967 3 c16 -20 39 -48 51 -63 25 -28 30 -80 11 -99 -16 -16
-56 -15 -71 1 -7 6 -27 31 -45 53 -37 49 -44 108 -14 130 26 21 37 17 68 -22z
m-496 -44 c15 -18 34 -30 49 -30 25 0 50 -25 51 -49 0 -22 -57 -71 -82 -71
-35 1 -57 23 -78 79 -16 41 -18 55 -8 76 15 33 38 32 68 -5z m-1273 -7 c9 -16
30 -43 45 -61 44 -52 37 -90 -21 -110 -50 -17 -57 -16 -96 23 -38 39 -47 83
-20 105 8 7 15 17 15 23 0 15 31 47 46 47 8 0 21 -12 31 -27z m-392 -78 c14
-46 4 -77 -29 -93 -31 -14 -46 8 -46 66 0 35 6 57 22 77 19 25 22 26 31 9 6
-10 16 -36 22 -59z m883 -14 c6 -16 22 -40 36 -54 29 -29 35 -79 12 -103 -18
-17 -73 -18 -109 -1 -68 31 -62 161 8 187 28 10 42 3 53 -29z m-1165 -20 c12
-47 -7 -91 -39 -91 -22 0 -24 4 -24 46 0 83 44 115 63 45z m2298 -42 c33 -35
39 -48 39 -85 0 -50 -22 -71 -83 -81 -63 -10 -126 52 -105 106 15 41 69 101
90 101 11 0 38 -19 59 -41z m-622 -13 c39 -40 42 -46 30 -67 -26 -50 -61 -62
-105 -36 -16 9 -21 24 -23 63 -2 44 1 54 21 68 12 9 25 16 28 16 3 0 25 -20
49 -44z m-1249 -56 c0 -10 4 -20 9 -22 4 -1 11 -19 15 -39 8 -42 -13 -74 -55
-84 -42 -10 -63 18 -55 74 3 25 11 48 16 49 6 2 10 10 10 17 0 17 29 35 47 28
7 -3 13 -13 13 -23z m490 -12 c11 -12 20 -28 20 -35 0 -7 5 -13 10 -13 19 0
11 -85 -10 -108 -39 -42 -114 -21 -145 40 -16 34 -14 41 35 99 39 44 60 49 90
17z m-830 -38 c12 -30 3 -73 -23 -107 -11 -16 -39 -17 -53 -3 -22 22 25 140
55 140 5 0 14 -13 21 -30z m1754 -35 c8 -31 -12 -75 -35 -75 -31 0 -41 67 -14
94 20 19 42 11 49 -19z m-409 -32 c16 -26 28 -58 27 -72 -4 -54 -89 -80 -142
-44 -14 9 -26 17 -27 17 -1 1 -4 13 -8 28 -6 24 0 34 38 73 25 25 54 45 64 45
11 0 30 -19 48 -47z"/>
<path d="M458 6523 c7 -3 16 -2 19 1 4 3 -2 6 -13 5 -11 0 -14 -3 -6 -6z"/>
<path d="M320 11730 c0 -5 5 -10 10 -10 6 0 10 5 10 10 0 6 -4 10 -10 10 -5 0
-10 -4 -10 -10z"/>
<path d="M400 11710 c0 -16 5 -30 10 -30 6 0 10 14 10 30 0 17 -4 30 -10 30
-5 0 -10 -13 -10 -30z"/>
<path d="M491 11724 c0 -11 3 -14 6 -6 3 7 2 16 -1 19 -3 4 -6 -2 -5 -13z"/>
<path d="M6145 11697 c3 -57 19 -84 55 -92 17 -4 37 -14 46 -22 12 -12 40 -16
117 -18 56 -1 112 -5 123 -9 26 -8 107 9 112 23 2 6 12 11 22 11 11 0 28 9 39
21 20 22 41 19 41 -6 0 -7 3 -15 8 -17 11 -5 67 -80 75 -100 8 -22 34 -22 104
-4 31 8 66 11 85 7 18 -4 47 -4 64 -1 26 6 39 1 77 -27 26 -19 48 -45 52 -60
9 -36 33 -52 77 -53 24 0 40 -6 46 -16 7 -12 19 -15 43 -12 18 3 47 -1 64 -7
16 -7 52 -16 79 -20 38 -6 59 -17 89 -46 30 -29 52 -40 86 -45 49 -7 90 -31
91 -52 0 -22 32 -76 53 -92 44 -33 78 -71 75 -82 -8 -24 47 -58 92 -58 21 0
30 -5 30 -17 0 -9 11 -31 25 -49 14 -18 25 -37 25 -43 0 -6 13 -20 28 -31 16
-12 35 -37 42 -56 8 -19 17 -34 22 -34 4 0 8 -6 8 -14 0 -8 9 -18 20 -21 11
-3 20 -13 20 -21 0 -22 30 -64 45 -64 8 0 20 -6 27 -13 7 -7 32 -22 55 -33 38
-17 49 -32 45 -65 -1 -4 14 -14 33 -24 26 -15 36 -29 48 -70 15 -53 51 -105
72 -105 6 0 29 -16 51 -36 21 -19 52 -43 67 -52 18 -11 27 -24 25 -38 -4 -28
25 -69 96 -136 56 -53 60 -60 57 -97 -2 -32 1 -40 18 -46 12 -3 21 -14 21 -22
0 -9 3 -13 7 -10 3 4 11 2 18 -3 8 -7 24 1 53 26 23 20 42 40 42 45 0 14 14
27 80 74 30 22 57 43 58 47 2 5 10 8 18 8 8 0 14 5 14 10 0 6 5 10 10 10 10 0
22 10 105 84 22 20 52 41 68 48 15 7 27 16 27 19 0 16 192 86 257 93 28 4 64
13 80 22 27 14 81 14 372 0 28 -2 57 4 80 17 39 22 141 30 141 12 0 -5 9 -16
20 -23 27 -17 27 -68 0 -82 -11 -6 -25 -8 -30 -5 -6 3 -10 1 -10 -6 0 -7 -3
-10 -6 -6 -3 3 -26 -6 -50 -19 -25 -14 -49 -22 -54 -19 -17 10 -62 -7 -56 -21
3 -8 2 -14 -3 -14 -5 0 -36 -20 -68 -44 -33 -24 -71 -47 -84 -50 -29 -9 -64
-23 -101 -43 -16 -8 -28 -11 -28 -7 0 5 -5 3 -12 -4 -7 -7 -24 -12 -40 -12
-15 0 -42 -6 -60 -14 -18 -8 -63 -27 -100 -42 -38 -15 -68 -31 -68 -35 0 -5
-18 -21 -40 -35 -30 -20 -40 -33 -39 -53 1 -42 -5 -65 -18 -74 -7 -4 -13 -14
-13 -21 0 -8 -7 -19 -16 -27 -10 -8 -14 -22 -10 -40 4 -23 -1 -31 -35 -54 -29
-19 -48 -25 -66 -20 -13 3 -40 0 -59 -7 -26 -9 -34 -18 -34 -36 0 -13 4 -21 9
-17 5 3 13 1 16 -5 4 -6 23 -21 43 -34 29 -18 40 -34 51 -72 8 -27 17 -51 20
-54 7 -6 25 -37 67 -118 18 -35 44 -76 57 -91 13 -16 34 -55 46 -87 12 -33 27
-66 32 -74 5 -8 20 -34 34 -57 15 -23 28 -54 31 -70 3 -15 9 -29 15 -31 5 -2
9 -14 9 -27 0 -14 8 -32 18 -42 10 -10 24 -30 31 -45 8 -15 27 -32 42 -39 16
-6 29 -18 29 -26 0 -8 4 -12 9 -8 5 3 11 -2 13 -12 2 -11 25 -22 77 -34 41
-10 78 -16 83 -13 4 3 14 2 20 -2 7 -5 27 -7 45 -5 18 1 33 -1 33 -6 0 -5 17
-10 37 -10 21 -1 39 -6 41 -12 2 -6 12 -11 22 -11 9 0 23 -7 30 -15 7 -8 18
-15 26 -15 7 0 29 -9 48 -21 27 -16 43 -19 68 -13 18 4 39 7 45 5 32 -5 83 38
83 70 0 12 4 38 10 58 5 20 12 48 15 64 3 15 11 27 19 27 7 0 20 10 29 23 13
20 22 22 97 22 57 0 84 -4 87 -12 3 -7 12 -13 21 -13 12 0 13 -3 4 -12 -16
-16 -15 -45 1 -51 9 -4 9 -6 0 -6 -7 -1 -10 -8 -7 -16 3 -8 -8 -32 -26 -55
-26 -32 -30 -46 -25 -70 4 -16 13 -30 21 -30 8 0 14 -4 14 -9 0 -5 17 -20 38
-32 20 -13 40 -28 44 -33 16 -22 5 -161 -12 -151 -12 7 -49 -25 -44 -39 4 -10
-5 -13 -35 -12 -23 0 -41 5 -41 9 0 5 -11 7 -24 3 -12 -3 -26 -3 -29 1 -4 3
-25 7 -48 9 -22 2 -50 11 -62 19 -12 8 -38 15 -59 15 -21 0 -38 4 -38 9 0 13
-55 24 -80 16 -11 -3 -20 -12 -20 -20 0 -8 -9 -17 -20 -20 -20 -6 -29 -35 -11
-35 6 0 8 -21 5 -47 -4 -43 -3 -45 11 -27 14 19 14 18 15 -3 0 -13 -4 -23 -10
-23 -5 0 -10 -7 -10 -15 0 -10 10 -14 33 -13 18 1 43 -4 55 -11 18 -10 25 -9
37 2 12 13 20 13 60 0 25 -9 45 -22 45 -30 0 -11 8 -12 38 -7 20 4 45 8 55 8
9 0 20 9 23 19 3 10 18 20 34 23 16 4 30 14 33 25 3 11 14 19 26 19 22 0 29
16 10 22 -7 2 -5 9 5 17 14 12 16 9 14 -29 -1 -24 4 -45 11 -49 14 -9 16 -59
6 -109 -11 -51 -92 -79 -122 -42 -10 12 -12 12 -13 1 0 -11 -3 -11 -16 0 -13
11 -17 10 -25 -4 -6 -9 -17 -17 -24 -17 -10 0 -15 -11 -15 -32 0 -21 -3 -28
-9 -20 -6 10 -10 10 -21 -3 -7 -8 -30 -18 -51 -21 -21 -4 -37 -10 -34 -13 2
-4 0 -13 -5 -20 -5 -9 -1 -26 9 -45 10 -17 18 -48 19 -68 1 -21 2 -55 3 -75 0
-21 -4 -39 -10 -41 -6 -2 -11 -10 -11 -17 0 -7 -5 -15 -10 -17 -6 -2 -13 -21
-17 -43 -3 -22 -11 -47 -17 -55 -31 -39 -54 -232 -33 -278 6 -12 25 -31 42
-42 17 -11 37 -31 45 -45 10 -18 22 -25 42 -25 19 0 27 -4 22 -11 -4 -7 6 -10
29 -8 35 3 69 -15 65 -35 -1 -6 1 -28 5 -48 5 -25 3 -46 -5 -60 -6 -13 -13
-32 -15 -43 -2 -11 -7 -31 -12 -45 -5 -14 -12 -73 -15 -132 -4 -86 -2 -111 10
-122 8 -8 14 -26 14 -39 0 -14 6 -39 13 -56 10 -22 11 -49 5 -98 -5 -38 -11
-88 -13 -112 -3 -23 -10 -62 -16 -85 -9 -35 -15 -64 -18 -87 -1 -3 -10 -16
-21 -29 -11 -13 -20 -29 -20 -37 0 -7 -4 -13 -10 -13 -5 0 -10 -8 -10 -18 0
-26 23 -72 36 -72 6 0 21 -21 34 -46 19 -40 22 -56 16 -113 -3 -36 -17 -109
-30 -161 -13 -53 -24 -127 -24 -168 -1 -41 -5 -79 -11 -85 -5 -7 -12 -39 -15
-71 -4 -32 -9 -63 -12 -67 -3 -5 -10 -35 -15 -66 -6 -32 -12 -65 -14 -73 -1
-8 -10 -32 -19 -52 -9 -21 -16 -40 -16 -44 0 -15 -46 -104 -53 -104 -22 0 -72
37 -190 140 -39 34 -257 249 -284 280 -37 43 -79 80 -91 80 -6 0 -14 9 -17 20
-3 11 -12 20 -18 20 -7 0 -32 18 -56 40 -24 22 -47 38 -51 35 -4 -3 -16 7 -26
20 -10 14 -22 25 -27 25 -7 0 -68 48 -134 107 -57 51 -92 36 -63 -25 9 -21 23
-52 31 -69 8 -18 17 -33 21 -33 5 0 8 -7 8 -15 0 -15 19 -55 31 -65 5 -5 21
-52 90 -280 18 -58 35 -112 40 -120 14 -29 45 -174 72 -340 16 -100 15 -425
-2 -520 -7 -41 -17 -102 -21 -135 -10 -64 -14 -83 -54 -240 -56 -222 -78 -357
-82 -493 -2 -73 1 -144 6 -158 12 -31 -23 -390 -44 -454 -34 -103 -56 -189
-66 -259 -6 -40 -13 -78 -17 -84 -4 -6 -10 -45 -15 -86 -5 -42 -13 -112 -18
-156 -11 -96 -26 -206 -40 -295 -6 -36 -15 -92 -19 -125 -4 -33 -15 -96 -24
-140 -10 -44 -22 -107 -28 -140 -6 -33 -13 -69 -16 -80 -4 -19 -8 -43 -32
-235 -8 -66 -31 -205 -46 -280 -3 -14 -9 -61 -15 -105 -5 -44 -14 -96 -20
-115 -5 -19 -10 -49 -10 -66 0 -17 -7 -51 -16 -75 -9 -24 -20 -66 -25 -94 -4
-27 -13 -70 -19 -95 -12 -48 -23 -105 -35 -182 l-8 -48 890 0 890 0 21 23 22
23 0 2327 c0 2314 0 2327 -20 2347 -11 11 -24 20 -30 20 -5 0 -10 9 -10 19 0
18 -2 19 -26 7 -14 -8 -34 -12 -44 -9 -18 5 -18 7 -3 29 11 18 13 27 4 38 -12
14 1 67 22 94 7 9 7 16 1 20 -6 4 -11 28 -11 53 0 25 -3 51 -7 58 -4 6 0 23 9
38 12 17 14 28 6 32 -7 5 -10 69 -7 201 2 107 -1 211 -7 231 -7 29 -6 44 9 75
15 30 19 59 17 129 -1 49 2 94 7 100 5 7 14 81 20 166 5 85 13 165 16 179 4
20 3 22 -5 10 -9 -13 -11 -13 -11 1 0 9 7 20 16 23 9 4 12 11 8 18 -14 22 -10
52 8 66 9 7 17 20 18 30 1 9 4 44 7 77 4 33 8 1242 10 2688 l3 2627 -2348 0
-2349 0 2 -43z m4586 -6963 c7 -9 12 -30 10 -46 -2 -20 3 -34 16 -43 10 -8 13
-15 7 -15 -5 0 -20 -9 -32 -20 -12 -12 -22 -16 -22 -11 0 5 -7 11 -16 13 -14
3 -13 8 8 33 20 23 23 35 17 53 -5 12 -5 22 -2 22 4 0 -2 7 -13 15 -16 12 -16
14 -3 15 9 0 23 -7 30 -16z m56 -10 c-3 -3 -12 -4 -19 -1 -8 3 -5 6 6 6 11 1
17 -2 13 -5z m-92 -14 c3 -5 1 -10 -4 -10 -6 0 -11 5 -11 10 0 6 2 10 4 10 3
0 8 -4 11 -10z m132 -16 c-3 -3 -12 -4 -19 -1 -8 3 -5 6 6 6 11 1 17 -2 13 -5z"/>
<path d="M51 11324 c0 -11 3 -14 6 -6 3 7 2 16 -1 19 -3 4 -6 -2 -5 -13z"/>
<path d="M21 11274 c0 -11 3 -14 6 -6 3 7 2 16 -1 19 -3 4 -6 -2 -5 -13z"/>
<path d="M52 11160 c0 -14 2 -19 5 -12 2 6 2 18 0 25 -3 6 -5 1 -5 -13z"/>
<path d="M6060 11120 c0 -13 5 -20 13 -17 6 2 12 10 12 17 0 7 -6 15 -12 18
-8 2 -13 -5 -13 -18z"/>
<path d="M6091 11084 c0 -11 3 -14 6 -6 3 7 2 16 -1 19 -3 4 -6 -2 -5 -13z"/>
<path d="M6631 10531 c-11 -7 -11 -10 0 -14 10 -4 8 -6 -4 -6 -24 -1 -11 -21
14 -21 12 0 19 7 19 19 0 24 -11 32 -29 22z"/>
<path d="M6575 10497 c-5 -7 -12 -25 -13 -42 -2 -16 -8 -35 -13 -42 -6 -6 -12
-33 -15 -60 -4 -26 -10 -52 -15 -57 -15 -16 -11 -66 6 -66 8 0 12 6 9 13 -3 8
2 20 11 27 8 7 15 21 15 31 0 11 5 19 10 19 6 0 10 10 10 23 0 18 2 19 10 7 7
-11 10 -5 10 23 0 20 5 37 10 37 6 0 10 18 10 40 0 30 -4 40 -16 40 -8 0 -12
5 -9 10 9 14 -8 12 -20 -3z"/>
<path d="M6732 10460 c0 -14 2 -19 5 -12 2 6 2 18 0 25 -3 6 -5 1 -5 -13z"/>
<path d="M6688 10438 c-16 -18 -28 -39 -28 -46 0 -8 -9 -27 -20 -42 -12 -17
-16 -31 -11 -35 6 -3 8 -12 5 -20 -4 -10 0 -12 15 -8 11 3 17 11 15 18 -3 7 3
15 13 17 13 4 23 22 32 60 19 79 13 96 -21 56z"/>
<path d="M6875 10371 c-3 -5 -1 -12 5 -16 5 -3 10 1 10 9 0 18 -6 21 -15 7z"/>
<path d="M6611 10207 c-13 -32 -15 -77 -3 -77 16 0 34 61 24 83 -10 22 -10 22
-21 -6z"/>
<path d="M6551 10194 c0 -11 3 -14 6 -6 3 7 2 16 -1 19 -3 4 -6 -2 -5 -13z"/>
<path d="M6293 10163 c-3 -8 -1 -24 5 -36 9 -18 11 -19 11 -4 1 9 6 17 11 17
6 0 10 8 10 18 0 22 -29 25 -37 5z"/>
<path d="M6380 10101 c0 -22 21 -33 41 -20 11 7 11 9 -3 9 -10 0 -18 7 -18 15
0 8 -4 15 -10 15 -5 0 -10 -9 -10 -19z"/>
<path d="M6268 10093 c-16 -18 -18 -63 -4 -94 4 -9 6 -20 5 -25 -4 -15 13 -64
21 -64 23 0 23 94 2 175 -7 25 -8 26 -24 8z"/>
<path d="M6946 10057 c3 -10 9 -15 12 -12 3 3 0 11 -7 18 -10 9 -11 8 -5 -6z"/>
<path d="M6405 9959 c-4 -6 -5 -13 -2 -16 7 -7 27 6 27 18 0 12 -17 12 -25 -2z"/>
<path d="M7071 9814 c0 -11 3 -14 6 -6 3 7 2 16 -1 19 -3 4 -6 -2 -5 -13z"/>
<path d="M7101 9794 c0 -11 3 -14 6 -6 3 7 2 16 -1 19 -3 4 -6 -2 -5 -13z"/>
<path d="M3051 9544 c0 -11 3 -14 6 -6 3 7 2 16 -1 19 -3 4 -6 -2 -5 -13z"/>
<path d="M7410 9510 c0 -13 5 -20 13 -17 6 2 12 10 12 17 0 7 -6 15 -12 18 -8
2 -13 -5 -13 -18z"/>
<path d="M8987 9381 c-15 -15 -25 -30 -21 -34 4 -4 2 -7 -5 -7 -7 0 -9 -5 -6
-11 4 -5 0 -18 -8 -27 -11 -13 -13 -30 -8 -69 4 -28 4 -61 -1 -73 -4 -12 -5
-27 -1 -33 3 -6 7 -36 9 -68 2 -46 -1 -57 -12 -52 -9 3 -14 -2 -14 -13 -1 -18
-1 -18 -14 -1 -19 25 -29 21 -14 -5 7 -13 14 -34 16 -48 2 -14 17 -42 34 -64
17 -21 34 -54 39 -75 7 -30 4 -42 -16 -73 -29 -44 -29 -46 -11 -50 12 -3 12
-9 -1 -46 -8 -24 -11 -51 -8 -60 4 -10 9 -44 11 -76 2 -33 10 -69 17 -80 8
-12 17 -37 20 -56 3 -19 9 -46 12 -60 3 -14 10 -59 15 -100 5 -41 13 -95 18
-120 6 -25 7 -51 3 -58 -8 -15 10 -131 27 -173 6 -15 9 -74 6 -145 -6 -166 -6
-172 1 -235 5 -38 4 -59 -4 -63 -6 -4 -11 -35 -11 -71 0 -35 -4 -65 -10 -67
-11 -4 -19 -72 -20 -173 -1 -180 -2 -201 -14 -215 -21 -25 -27 -50 -15 -72 8
-15 7 -30 -5 -63 -9 -23 -16 -47 -14 -51 3 -12 -25 -74 -34 -74 -5 0 -8 -18
-8 -40 0 -30 4 -40 16 -40 13 0 14 -3 5 -14 -8 -10 -7 -22 4 -49 8 -20 19 -38
25 -42 16 -10 12 -25 -7 -25 -15 0 -15 -1 0 -18 21 -23 22 -66 1 -82 -13 -11
-16 -10 -20 8 -9 31 -31 35 -37 6 -2 -13 0 -27 5 -30 13 -8 7 -154 -6 -176 -6
-10 -18 -18 -28 -18 -9 0 -24 -10 -33 -22 -13 -19 -13 -23 -1 -26 18 -4 13
-61 -8 -94 -24 -37 -68 -72 -94 -74 -13 -2 -27 -5 -30 -9 -3 -3 -7 -39 -8 -81
-3 -80 -12 -100 -47 -107 -22 -4 -22 -4 1 -6 28 -1 29 -19 1 -23 -18 -2 -22
-10 -23 -46 -1 -40 0 -42 29 -42 24 0 31 -5 32 -20 1 -11 -1 -20 -5 -20 -4 0
-7 -18 -8 -40 -1 -41 -13 -65 -21 -42 -3 6 -11 12 -18 12 -21 0 -30 -20 -30
-70 -1 -42 -3 -45 -28 -43 -15 1 -26 -1 -26 -5 3 -20 -3 -32 -16 -32 -33 0 -7
-64 30 -71 33 -7 16 -24 -20 -21 -33 3 -35 1 -35 -27 0 -16 -4 -33 -10 -36 -5
-3 -10 1 -10 9 0 9 -5 16 -11 16 -6 0 -8 -8 -5 -17 7 -23 -4 -40 -29 -44 -11
-3 -20 -12 -20 -21 0 -20 -65 -83 -66 -65 0 7 -5 -1 -11 -18 -6 -16 -24 -44
-40 -61 -26 -28 -28 -34 -17 -57 10 -22 9 -30 -3 -44 -8 -10 -18 -26 -21 -35
-10 -28 18 -22 67 15 24 17 56 41 72 52 16 11 45 35 65 53 20 17 39 32 43 32
7 0 48 35 116 100 88 84 179 165 189 168 6 2 11 10 11 18 0 8 13 29 30 47 16
17 37 46 47 64 10 18 21 33 25 33 5 0 8 6 8 13 0 8 11 24 25 37 14 13 25 29
25 37 0 7 5 13 10 13 6 0 10 7 10 15 0 8 5 15 10 15 6 0 10 9 10 19 0 11 9 41
21 68 17 39 20 65 18 143 -1 52 -2 112 -2 132 1 44 32 118 50 118 20 0 53 -37
55 -62 0 -13 2 -28 2 -35 1 -6 15 -25 32 -41 17 -16 42 -49 55 -73 27 -50 44
-70 62 -73 6 -2 25 -8 40 -14 34 -14 50 -15 42 -3 -3 5 0 13 6 17 6 3 15 0 20
-7 6 -10 9 -4 9 19 0 20 -6 35 -15 38 -8 4 -18 24 -21 45 -4 22 -17 49 -30 62
-24 23 -34 87 -13 87 5 0 7 4 4 10 -3 6 1 7 9 4 9 -3 16 -10 16 -14 0 -4 9
-10 20 -13 11 -3 23 -13 26 -24 3 -10 9 -25 12 -33 3 -8 7 -22 8 -30 7 -41 33
-93 54 -107 12 -9 48 -41 79 -72 31 -31 76 -67 100 -79 39 -21 46 -22 59 -8
18 18 33 114 19 123 -5 3 -6 21 -2 40 7 41 -1 73 -20 73 -8 0 -17 12 -20 28
-4 15 -15 63 -26 107 -11 44 -23 122 -26 173 -3 50 -9 92 -13 92 -10 0 -20 35
-26 95 -2 28 -9 73 -14 100 -17 90 -30 269 -20 279 6 6 5 16 -1 28 -6 10 -9
63 -8 116 1 53 -3 150 -9 215 -6 65 -8 140 -5 167 4 34 2 50 -6 50 -6 0 -11
10 -11 23 0 12 -6 31 -14 42 -7 11 -16 38 -19 60 -28 204 -27 181 -12 362 6
74 5 97 -7 115 -25 39 -40 147 -43 308 -3 173 -19 250 -61 295 -18 19 -22 30
-14 35 14 9 12 157 -4 185 -14 27 -16 125 -2 125 6 0 -6 11 -27 25 -29 20 -37
32 -37 56 0 22 -6 32 -25 41 -22 10 -25 16 -20 40 5 21 3 28 -8 28 -15 0 -28
21 -26 43 0 7 4 3 9 -8 6 -14 9 -15 9 -5 1 9 -12 31 -29 50 -16 19 -29 45 -30
58 0 21 -20 33 -20 11 0 -6 -6 -9 -12 -6 -7 2 -13 8 -13 13 0 5 -3 14 -7 20
-4 6 -10 30 -14 53 -4 24 -13 45 -20 48 -8 3 -14 11 -14 19 0 22 -69 84 -93
83 -12 0 -35 -12 -50 -28z m-87 -3295 c0 -3 -4 -8 -10 -11 -5 -3 -10 -1 -10 4
0 6 5 11 10 11 6 0 10 -2 10 -4z m877 -388 c-3 -8 -6 -5 -6 6 -1 11 2 17 5 13
3 -3 4 -12 1 -19z"/>
<path d="M60 9275 c0 -8 -5 -15 -11 -15 -5 0 -7 -5 -3 -12 4 -7 3 -8 -4 -4 -6
4 -8 14 -5 23 5 13 2 15 -11 10 -10 -4 -20 -7 -22 -7 -2 0 -4 -58 -4 -130 l0
-130 40 0 40 0 2 48 c0 26 2 70 2 97 1 28 5 56 9 63 5 7 4 19 -2 26 -6 7 -9
21 -5 30 4 11 1 16 -10 16 -9 0 -16 -7 -16 -15z"/>
<path d="M557 9030 c-6 -23 3 -26 21 -8 16 16 15 28 -2 28 -7 0 -16 -9 -19
-20z"/>
<path d="M8532 8708 c3 -7 15 -15 28 -16 21 -3 22 -2 11 12 -16 19 -44 21 -39
4z"/>
<path d="M8488 8683 c7 -3 16 -2 19 1 4 3 -2 6 -13 5 -11 0 -14 -3 -6 -6z"/>
<path d="M1448 8593 c7 -3 16 -2 19 1 4 3 -2 6 -13 5 -11 0 -14 -3 -6 -6z"/>
<path d="M890 8560 c-12 -7 -12 -12 -3 -21 15 -15 26 -7 21 15 -2 11 -7 13
-18 6z"/>
<path d="M245 8440 c-3 -5 1 -10 10 -10 9 0 13 5 10 10 -3 6 -8 10 -10 10 -2
0 -7 -4 -10 -10z"/>
<path d="M246 8413 c-3 -3 -1 -12 5 -20 9 -10 7 -13 -7 -14 -11 0 -14 -3 -6
-6 21 -8 13 -21 -18 -28 -35 -8 -48 -24 -29 -35 10 -7 10 -16 -1 -49 -14 -42
-31 -49 -59 -23 -19 19 -27 6 -7 -13 19 -20 13 -35 -15 -35 -12 0 -19 -5 -16
-12 5 -16 91 -12 121 4 12 6 67 14 124 16 56 3 102 9 102 13 0 5 -4 9 -8 9 -4
0 -8 32 -8 72 0 48 -3 73 -12 76 -7 2 -10 7 -8 10 2 4 -20 8 -49 10 -29 2 -56
-2 -60 -8 -11 -18 -33 -11 -28 9 5 19 -9 36 -21 24z m69 -43 c3 -5 1 -10 -4
-10 -6 0 -11 5 -11 10 0 6 2 10 4 10 3 0 8 -4 11 -10z m89 -135 c4 -12 -4 -15
-42 -14 -33 2 -38 3 -17 6 17 3 34 9 40 14 12 12 12 12 19 -6z m-136 -22 c-10
-2 -28 -2 -40 0 -13 2 -5 4 17 4 22 1 32 -1 23 -4z"/>
<path d="M1196 8383 c-12 -12 -5 -23 14 -23 11 0 20 4 20 9 0 11 -26 22 -34
14z"/>
<path d="M150 8271 c0 -11 4 -22 9 -25 4 -3 6 6 3 19 -5 30 -12 33 -12 6z"/>
<path d="M845 8160 c-3 -5 1 -10 10 -10 9 0 13 5 10 10 -3 6 -8 10 -10 10 -2
0 -7 -4 -10 -10z"/>
<path d="M378 8143 c7 -3 16 -2 19 1 4 3 -2 6 -13 5 -11 0 -14 -3 -6 -6z"/>
<path d="M835 8120 c-8 -13 5 -13 25 0 13 8 13 10 -2 10 -9 0 -20 -4 -23 -10z"/>
<path d="M1093 8114 c-3 -9 2 -23 11 -32 15 -15 16 -15 16 1 0 9 5 17 10 17 6
0 10 6 10 13 0 18 -40 19 -47 1z"/>
<path d="M1098 8053 c6 -2 18 -2 25 0 6 3 1 5 -13 5 -14 0 -19 -2 -12 -5z"/>
<path d="M1428 7992 c-20 -4 -25 -22 -5 -21 6 0 21 4 31 8 15 6 16 9 5 12 -8
3 -22 4 -31 1z"/>
<path d="M1489 7943 c-13 -15 -11 -16 16 -9 17 4 38 7 48 7 9 0 17 4 17 10 0
16 -67 10 -81 -8z"/>
<path d="M1885 7920 c-3 -5 -1 -10 4 -10 6 0 11 5 11 10 0 6 -2 10 -4 10 -3 0
-8 -4 -11 -10z"/>
<path d="M1890 7883 c0 -8 14 -13 40 -13 26 0 40 5 40 13 0 8 -14 12 -40 12
-26 0 -40 -4 -40 -12z"/>
<path d="M6440 7863 c0 -16 25 -73 32 -73 9 0 10 26 2 58 -6 19 -34 33 -34 15z"/>
<path d="M10425 7840 c-3 -5 1 -10 10 -10 9 0 13 5 10 10 -3 6 -8 10 -10 10
-2 0 -7 -4 -10 -10z"/>
<path d="M1827 7783 c-10 -9 -9 -23 2 -23 5 0 11 7 15 15 5 15 -5 20 -17 8z"/>
<path d="M6651 7754 c0 -11 3 -14 6 -6 3 7 2 16 -1 19 -3 4 -6 -2 -5 -13z"/>
<path d="M6640 7710 c0 -5 5 -10 10 -10 6 0 10 5 10 10 0 6 -4 10 -10 10 -5 0
-10 -4 -10 -10z"/>
<path d="M6426 7514 c-8 -21 -7 -26 3 -43 13 -21 41 4 41 35 0 28 -34 34 -44
8z"/>
<path d="M6530 7380 c0 -5 7 -10 15 -10 8 0 15 5 15 10 0 6 -7 10 -15 10 -8 0
-15 -4 -15 -10z"/>
<path d="M8366 7221 c-3 -5 0 -14 8 -20 10 -8 16 -8 25 3 9 11 8 15 -5 20 -20
8 -22 8 -28 -3z"/>
<path d="M7855 7050 c-4 -6 -10 -8 -14 -6 -4 3 -8 -1 -8 -9 0 -21 20 -18 35 5
7 11 8 20 3 20 -6 0 -13 -5 -16 -10z"/>
<path d="M7070 6920 c0 -5 7 -10 15 -10 8 0 15 5 15 10 0 6 -7 10 -15 10 -8 0
-15 -4 -15 -10z"/>
<path d="M6755 6912 c-25 -5 -60 -41 -50 -50 4 -4 10 -1 12 6 3 6 20 12 39 12
23 0 34 5 34 14 0 19 -10 24 -35 18z"/>
<path d="M6616 6891 c-7 -11 31 -22 50 -14 8 3 11 9 8 14 -7 12 -51 12 -58 0z"/>
<path d="M6790 6790 c0 -5 7 -10 16 -10 8 0 12 5 9 10 -3 6 -10 10 -16 10 -5
0 -9 -4 -9 -10z"/>
<path d="M1680 6590 c0 -5 5 -10 11 -10 5 0 7 5 4 10 -3 6 -8 10 -11 10 -2 0
-4 -4 -4 -10z"/>
<path d="M6483 6482 c-17 -5 -20 -11 -13 -22 6 -10 10 -11 10 -2 0 6 7 12 16
12 9 0 12 -5 8 -12 -4 -7 -3 -8 4 -4 13 8 16 37 5 35 -5 -1 -18 -4 -30 -7z"/>
<path d="M7018 6373 c7 -3 16 -2 19 1 4 3 -2 6 -13 5 -11 0 -14 -3 -6 -6z"/>
<path d="M9441 5863 c-1 -13 1 -23 3 -23 2 0 13 -3 23 -6 16 -5 16 -4 2 8 -9
7 -18 20 -22 28 -4 10 -6 8 -6 -7z"/>
<path d="M10776 5731 c-10 -11 -13 -21 -7 -25 5 -4 12 -2 16 4 4 6 12 7 18 3
8 -5 8 -2 0 9 -7 8 -10 18 -6 21 3 4 4 7 1 7 -3 0 -13 -9 -22 -19z"/>
<path d="M10770 5679 c0 -5 5 -7 10 -4 6 3 10 8 10 11 0 2 -4 4 -10 4 -5 0
-10 -5 -10 -11z"/>
<path d="M8617 5623 c-14 -13 -7 -53 9 -53 8 0 13 4 9 9 -3 5 -1 12 4 16 6 3
8 12 4 20 -6 16 -16 19 -26 8z"/>
<path d="M10825 5319 c-4 -6 -7 -27 -7 -47 0 -48 -18 -131 -35 -158 -11 -17
-11 -32 -3 -68 6 -26 9 -71 8 -101 -3 -44 -5 -51 -17 -42 -11 10 -13 8 -6 -13
4 -14 12 -28 17 -31 5 -3 8 -10 6 -15 -1 -5 11 -10 27 -11 29 -2 29 -2 5 7
-24 8 -24 8 -2 9 l22 1 0 240 c0 132 -2 240 -4 240 -3 0 -8 -5 -11 -11z"/>
<path d="M7495 5235 c-7 -5 -15 -22 -19 -36 -3 -15 -15 -29 -26 -32 -23 -6
-39 -39 -22 -45 7 -2 12 -13 12 -25 0 -16 3 -18 12 -9 16 16 59 15 57 0 -3
-28 2 -38 19 -37 10 0 12 3 5 6 -7 2 -13 14 -13 25 0 18 4 20 33 14 17 -3 26
-2 20 2 -10 6 -8 12 5 23 9 8 22 15 27 16 17 4 17 53 1 78 -17 25 -88 39 -111
20z"/>
<path d="M10730 4800 c0 -5 5 -10 10 -10 6 0 10 5 10 10 0 6 -4 10 -10 10 -5
0 -10 -4 -10 -10z"/>
<path d="M10785 4800 c-3 -5 -1 -10 4 -10 6 0 11 5 11 10 0 6 -2 10 -4 10 -3
0 -8 -4 -11 -10z"/>
<path d="M8180 4446 c0 -11 -7 -28 -16 -38 -10 -10 -19 -40 -22 -67 -4 -46 -3
-50 17 -48 11 1 21 4 21 7 0 4 8 15 19 26 33 36 36 78 7 110 -22 25 -25 26
-26 10z"/>
<path d="M7840 4150 c0 -5 5 -10 10 -10 6 0 10 5 10 10 0 6 -4 10 -10 10 -5 0
-10 -4 -10 -10z"/>
<path d="M7428 3743 c-10 -2 -18 -8 -18 -13 0 -11 54 -6 58 6 4 10 -15 14 -40
7z"/>
<path d="M8995 2460 c-7 -11 19 -20 34 -10 9 5 7 9 -8 13 -12 3 -23 2 -26 -3z"/>
</g>
</svg>
